<?xml version="1.0" standalone="no"?>
<!DOCTYPE svg PUBLIC "-//W3C//DTD SVG 20010904//EN"
 "http://www.w3.org/TR/2001/REC-SVG-20010904/DTD/svg10.dtd">
<svg version="1.0" xmlns="http://www.w3.org/2000/svg"
 width="2500.000000pt" height="2000.000000pt" viewBox="0 0 2500.000000 2000.000000"
 preserveAspectRatio="xMidYMid meet">

<g transform="translate(0.000000,2000.000000) scale(0.100000,-0.100000)"
fill="#000000" stroke="none">
<path d="M3823 16290 c3 -179 10 -365 16 -415 6 -49 18 -153 26 -230 20 -169
61 -414 95 -565 4 -19 13 -57 19 -85 38 -176 153 -539 216 -680 8 -19 22 -52
31 -72 113 -264 315 -588 483 -777 48 -54 204 -210 266 -266 149 -135 186
-154 200 -109 8 26 19 24 35 -6 7 -14 17 -25 22 -25 5 0 24 -16 44 -35 19 -19
39 -35 44 -35 6 0 10 -4 10 -10 0 -5 -6 -10 -14 -10 -7 0 -18 -6 -24 -13 -8
-10 17 -33 106 -100 105 -78 118 -85 136 -73 11 7 21 24 21 37 3 64 6 70 38
84 39 18 145 40 172 36 30 -5 68 -50 61 -75 -3 -11 -6 -24 -6 -28 0 -5 -9 -8
-20 -8 -16 0 -19 6 -17 35 1 18 -2 33 -8 32 -5 -1 -9 -11 -8 -22 1 -11 3 -33
4 -48 2 -25 5 -28 33 -25 28 3 31 0 28 -22 -2 -16 7 -37 23 -55 l25 -30 0 32
c0 17 5 35 11 39 6 4 8 20 5 38 -5 24 -1 39 13 55 22 25 38 12 22 -17 -12 -22
-5 -32 21 -32 12 0 18 -7 18 -24 0 -33 -10 -56 -24 -56 -14 0 -56 -45 -56 -60
0 -16 20 -12 26 5 4 8 12 15 20 15 8 0 14 6 14 14 0 20 19 31 33 17 7 -7 3
-18 -16 -37 -40 -40 -73 -54 -132 -57 -29 -1 -51 -5 -48 -9 2 -5 -2 -8 -9 -8
-8 0 -18 3 -24 8 -5 4 -2 0 6 -9 41 -45 656 -421 950 -581 30 -17 73 -41 95
-53 201 -112 385 -209 768 -401 191 -95 356 -174 367 -174 11 0 20 -4 20 -8 0
-5 42 -28 93 -52 306 -144 337 -158 522 -239 206 -90 190 -79 189 -136 0 -28
-8 -132 -17 -233 -22 -233 -23 -756 -2 -992 20 -239 36 -369 65 -522 5 -32 14
-82 19 -110 9 -50 22 -109 57 -258 60 -255 177 -577 302 -830 76 -155 236
-427 289 -490 7 -8 37 -46 66 -85 36 -47 60 -70 75 -70 11 0 24 -4 28 -8 4 -4
2 -7 -4 -7 -19 0 -14 -23 11 -52 l23 -27 27 27 28 27 5 -22 c4 -13 11 -23 16
-23 6 0 7 -7 4 -15 -3 -9 1 -18 10 -22 8 -3 13 -12 10 -19 -3 -8 -1 -14 5 -14
6 0 8 -4 5 -9 -7 -11 28 -21 43 -12 13 8 -40 85 -64 95 -8 3 -15 17 -15 31 0
17 -8 29 -25 37 -13 6 -22 15 -19 20 3 4 2 17 -1 28 -5 15 -12 19 -31 14 -26
-7 -34 10 -8 20 13 5 11 14 -15 58 -16 29 -58 109 -93 178 -35 69 -68 132 -73
140 -15 23 -123 293 -160 400 -99 285 -166 560 -205 845 -74 542 -40 1103 101
1660 37 144 35 138 104 346 30 91 80 228 110 305 57 140 66 161 136 313 22 46
39 87 39 91 0 4 -66 47 -147 96 -82 48 -170 102 -198 120 -27 17 -115 72 -195
122 -80 49 -186 116 -237 148 -51 33 -127 81 -170 109 -127 80 -677 445 -824
546 -338 232 -433 299 -784 553 -199 144 -714 536 -865 658 -47 38 -103 83
-125 101 -1010 812 -1791 1626 -2161 2252 -94 161 -88 176 -81 -195z m105
-363 c2 -10 -3 -17 -12 -17 -18 0 -29 16 -21 31 9 14 29 6 33 -14z m323 -570
c-13 -13 -26 -3 -16 12 3 6 11 8 17 5 6 -4 6 -10 -1 -17z m-196 -367 c0 -29
-32 -41 -41 -16 -9 24 4 48 23 44 12 -2 18 -12 18 -28z m115 -50 c0 -5 -7 -10
-15 -10 -8 0 -15 5 -15 10 0 6 7 10 15 10 8 0 15 -4 15 -10z m175 -90 c3 -5
-1 -10 -9 -10 -9 0 -16 5 -16 10 0 6 4 10 9 10 6 0 13 -4 16 -10z m185 -425
c0 -8 -7 -15 -15 -15 -8 0 -15 7 -15 15 0 8 7 15 15 15 8 0 15 -7 15 -15z
m150 -188 c0 -19 -10 -27 -25 -20 -17 6 -8 33 11 33 8 0 14 -6 14 -13z m1243
-142 c7 -17 -8 -29 -28 -21 -17 6 -9 36 10 36 7 0 15 -7 18 -15z m-593 -160
c0 -8 -7 -15 -15 -15 -16 0 -20 12 -8 23 11 12 23 8 23 -8z m855 -75 c-5 -8
-11 -8 -21 1 -12 10 -12 14 -2 20 16 10 33 -5 23 -21z m-577 -53 c2 -12 -3
-17 -17 -17 -12 0 -21 6 -21 13 0 31 32 34 38 4z m-412 -134 c-10 -10 -19 5
-10 18 6 11 8 11 12 0 2 -7 1 -15 -2 -18z m-21 -110 c-19 -13 -35 -17 -35 -9
0 12 33 35 42 30 7 -5 4 -12 -7 -21z m-125 -113 c0 -5 -4 -10 -10 -10 -5 0
-10 5 -10 10 0 6 5 10 10 10 6 0 10 -4 10 -10z m2050 -270 c0 -5 -7 -10 -15
-10 -8 0 -15 5 -15 10 0 6 7 10 15 10 8 0 15 -4 15 -10z m-1212 -222 c15 -15
-2 -38 -28 -38 -22 0 -32 24 -17 39 14 14 30 14 45 -1z m97 -76 c0 -18 -20
-15 -23 4 -3 10 1 15 10 12 7 -3 13 -10 13 -16z m-124 -29 c-9 -16 -10 -14
-11 12 0 21 3 26 11 18 8 -8 8 -16 0 -30z m539 -278 c0 -25 -23 -35 -35 -15
-10 16 2 40 20 40 9 0 15 -9 15 -25z m-371 -41 c-6 -8 -17 -14 -25 -14 -20 0
-27 19 -14 35 9 11 17 12 32 4 15 -8 17 -13 7 -25z m346 -55 c12 -18 -4 -61
-22 -57 -22 4 -38 32 -30 52 7 18 42 22 52 5z m-305 -14 c-12 -15 -30 -12 -30
6 0 5 10 9 21 9 18 0 19 -2 9 -15z m165 -65 c0 -18 -33 -26 -48 -11 -9 9 -8
14 3 21 21 14 45 8 45 -10z m405 -219 c0 -4 -9 -16 -20 -26 -16 -15 -22 -15
-35 -5 -20 17 -19 37 2 49 18 10 53 -2 53 -18z m366 -112 c9 -15 -11 -33 -30
-26 -9 4 -13 13 -10 22 7 17 30 20 40 4z m2102 -187 c2 -7 -6 -12 -17 -12 -21
0 -27 11 -14 24 9 9 26 2 31 -12z m-278 -42 c0 -11 -4 -20 -9 -20 -11 0 -22
26 -14 34 12 12 23 5 23 -14z m-132 -158 c3 -16 -2 -22 -16 -22 -24 0 -35 23
-19 39 16 16 31 8 35 -17z m-608 -53 c0 -5 -7 -9 -15 -9 -15 0 -20 12 -9 23 8
8 24 -1 24 -14z m-143 -93 c-4 -9 -16 -16 -27 -16 -15 0 -20 7 -20 24 0 13 6
26 13 29 18 7 41 -19 34 -37z m773 -86 c0 -21 -24 -28 -35 -10 -8 14 3 30 21
30 8 0 14 -9 14 -20z m-793 -22 c-3 -8 -6 -5 -6 6 -1 11 2 17 5 13 3 -3 4 -12
1 -19z m1001 -512 c-4 -25 -36 -34 -44 -12 -8 21 13 46 32 39 8 -3 14 -15 12
-27z m92 -564 c0 -13 -12 -22 -22 -16 -10 6 -1 24 13 24 5 0 9 -4 9 -8z m37
-208 c3 -8 1 -20 -6 -27 -14 -14 -47 15 -37 32 10 16 36 13 43 -5z"/>
<path d="M21157 16588 c-75 -124 -166 -270 -187 -299 -483 -694 -1224 -1421
-2330 -2290 -112 -88 -83 -66 -406 -308 -599 -449 -1228 -886 -1859 -1290
-147 -95 -192 -129 -202 -152 -11 -26 -17 -30 -38 -25 -21 5 -54 -11 -173 -85
-291 -182 -349 -217 -456 -280 -59 -35 -111 -70 -114 -77 -2 -7 7 -37 21 -65
23 -48 41 -87 95 -207 72 -160 185 -475 232 -644 12 -44 26 -87 30 -95 11 -21
85 -395 104 -531 20 -135 46 -407 46 -477 0 -29 6 -62 12 -73 10 -16 10 -24 0
-40 -18 -30 -14 -58 11 -71 12 -7 24 -15 27 -19 3 -4 13 3 23 16 17 23 17 24
-2 24 -32 0 -39 46 -12 73 l22 22 20 -24 c10 -13 19 -31 19 -41 0 -23 69 -90
93 -90 30 0 77 29 77 48 0 10 5 23 12 30 9 9 5 12 -18 12 -16 0 -35 -5 -40
-10 -7 -7 -16 -5 -29 4 -19 14 -19 15 -2 34 15 17 16 24 7 42 -18 34 -6 50 40
50 45 0 54 14 15 24 -30 8 -32 21 -6 36 13 7 22 7 26 0 36 -58 54 96 55 453 0
264 -4 355 -32 616 -7 73 -8 119 -2 128 9 14 48 33 264 128 130 57 200 89 535
248 181 86 692 341 815 407 63 34 153 82 200 107 47 25 87 47 89 49 3 3 -5 14
-18 25 -24 23 -24 37 2 53 25 16 52 -5 50 -39 -1 -20 1 -24 10 -17 7 6 48 29
92 52 44 24 89 50 100 60 11 10 40 27 65 38 25 12 65 33 90 48 25 15 59 35 75
44 38 22 202 120 325 195 302 184 692 458 923 649 397 327 633 611 830 1001
48 95 107 222 107 230 0 3 9 24 19 48 155 345 293 943 346 1507 16 169 33 770
22 770 -4 0 -13 -10 -20 -22z m-174 -1159 c-6 -6 -15 -4 -23 6 -12 14 -11 18
0 25 18 11 37 -17 23 -31z m-597 -64 c19 -29 12 -75 -12 -75 -20 0 -64 30 -64
43 0 13 40 57 52 57 4 0 15 -11 24 -25z m174 -565 c0 -21 -15 -27 -25 -10 -7
12 2 30 16 30 5 0 9 -9 9 -20z m-150 -220 c0 -11 -7 -20 -15 -20 -8 0 -15 9
-15 20 0 11 7 20 15 20 8 0 15 -9 15 -20z m-720 -109 c0 -6 -4 -13 -10 -16 -5
-3 -10 1 -10 9 0 9 5 16 10 16 6 0 10 -4 10 -9z m298 -602 c-2 -6 -8 -10 -13
-10 -5 0 -11 4 -13 10 -2 6 4 11 13 11 9 0 15 -5 13 -11z m-130 -115 c-19 -19
-38 -11 -38 16 0 24 21 31 40 14 12 -12 12 -16 -2 -30z m-110 -292 c2 -14 -2
-22 -12 -22 -19 0 -29 17 -22 36 8 22 30 12 34 -14z m-243 -2 c3 -5 1 -10 -4
-10 -6 0 -11 5 -11 10 0 6 2 10 4 10 3 0 8 -4 11 -10z m-915 -46 c0 -8 -9 -14
-20 -14 -22 0 -28 26 -7 33 16 6 27 -1 27 -19z m710 16 c0 -5 -7 -10 -15 -10
-8 0 -15 5 -15 10 0 6 7 10 15 10 8 0 15 -4 15 -10z m-1550 -150 c0 -5 -5 -10
-11 -10 -5 0 -7 5 -4 10 3 6 8 10 11 10 2 0 4 -4 4 -10z m175 -111 c10 -16 -3
-56 -21 -63 -35 -13 -74 41 -47 67 10 11 61 8 68 -4z m1589 -238 c3 -5 -1 -14
-9 -21 -8 -7 -15 -23 -15 -36 0 -31 -12 -36 -38 -18 -29 20 -28 42 2 50 14 3
27 12 30 20 6 16 22 19 30 5z m-669 -40 c3 -5 1 -12 -5 -16 -5 -3 -10 1 -10 9
0 18 6 21 15 7z m-617 -29 c2 -7 -3 -12 -12 -12 -9 0 -16 7 -16 16 0 17 22 14
28 -4z m1102 -68 c0 -16 -16 -19 -25 -4 -8 13 4 32 16 25 5 -4 9 -13 9 -21z
m-680 -25 c0 -12 -29 -24 -37 -16 -3 4 -3 13 0 21 6 16 37 11 37 -5z m600 -19
c0 -13 -7 -20 -20 -20 -19 0 -27 20 -13 33 13 14 33 6 33 -13z m-815 -70 c3
-5 -3 -10 -15 -10 -12 0 -18 5 -15 10 3 6 10 10 15 10 5 0 12 -4 15 -10z
m-427 -222 c-4 -27 -33 -36 -42 -13 -8 22 1 35 25 35 15 0 20 -6 17 -22z m328
-64 c-5 -13 -10 -14 -18 -6 -6 6 -8 18 -4 28 5 13 10 14 18 6 6 -6 8 -18 4
-28z m42 -126 c-7 -20 -48 -23 -48 -4 0 11 9 16 26 16 16 0 24 -5 22 -12z
m-50 -104 c28 -19 28 -45 1 -70 -15 -13 -24 -16 -36 -8 -32 20 -38 40 -20 68
20 30 25 31 55 10z m-1108 -60 c0 -14 -21 -19 -33 -7 -9 9 13 34 24 27 5 -3 9
-12 9 -20z m-1067 -283 c9 -38 -6 -64 -36 -59 -36 5 -43 32 -16 66 29 37 40
36 52 -7z m327 23 c0 -8 -5 -12 -10 -9 -6 4 -8 11 -5 16 9 14 15 11 15 -7z
m18 -351 c-5 -25 -28 -28 -28 -4 0 12 6 21 16 21 9 0 14 -7 12 -17z m-578
-1133 c0 -11 -7 -20 -15 -20 -15 0 -21 21 -8 33 12 13 23 7 23 -13z m330 -155
c0 -9 -7 -18 -16 -22 -18 -7 -39 11 -30 26 11 17 46 13 46 -4z m-130 -89 c0
-8 -4 -17 -9 -21 -12 -7 -24 12 -16 25 9 15 25 12 25 -4z m130 -76 c13 -9 12
-12 -4 -25 -11 -8 -27 -15 -37 -15 -18 0 -33 26 -23 41 7 12 45 11 64 -1z
m-140 -30 c0 -5 -4 -10 -10 -10 -5 0 -10 5 -10 10 0 6 5 10 10 10 6 0 10 -4
10 -10z m54 -61 c-10 -16 -24 -9 -24 12 0 18 2 19 15 9 8 -7 12 -16 9 -21z
m-98 -234 c14 -13 12 -15 -15 -15 -21 0 -31 5 -31 15 0 8 7 15 16 15 8 0 22
-7 30 -15z"/>
<path d="M4380 13174 c0 -21 57 -252 82 -334 115 -370 249 -660 450 -967 53
-81 63 -91 79 -82 13 6 25 6 39 -1 14 -7 25 -7 37 0 13 8 28 7 58 -4 l40 -15
-37 0 c-29 -1 -41 -7 -58 -31 -18 -25 -25 -28 -36 -19 -30 25 -12 -9 29 -51
30 -33 48 -44 65 -42 13 2 30 -2 38 -8 12 -11 13 -6 8 32 -5 33 -2 47 9 56 18
16 22 6 32 -80 6 -50 10 -60 36 -75 33 -20 44 -43 34 -74 -5 -16 0 -27 20 -43
19 -15 27 -32 28 -56 2 -38 20 -44 25 -10 4 25 29 37 44 22 5 -5 11 -26 12
-46 2 -21 11 -43 23 -53 11 -10 19 -28 18 -40 -2 -27 31 -60 65 -65 14 -2 24
-9 22 -16 -1 -6 2 -12 8 -12 5 0 12 15 15 34 8 38 27 48 81 39 26 -4 35 -2 40
12 4 10 2 26 -4 35 -10 17 -7 30 9 30 4 0 13 -16 19 -35 6 -19 17 -35 23 -35
6 0 3 -6 -5 -12 -9 -7 -18 -26 -20 -42 -3 -25 -10 -31 -46 -42 -24 -7 -52 -11
-62 -9 -22 4 -17 -20 6 -29 10 -4 13 -1 9 7 -4 6 0 4 8 -5 8 -10 18 -18 22
-18 4 0 4 8 0 18 -4 12 -1 11 15 -5 11 -13 26 -23 33 -23 7 0 22 -7 33 -16 10
-8 13 -12 6 -9 -7 4 -25 4 -39 0 l-26 -6 23 -25 c13 -13 32 -24 42 -24 10 0
18 -4 18 -9 0 -18 33 -42 48 -36 9 3 13 3 9 -1 -9 -9 12 -34 29 -34 8 0 14 10
14 23 0 17 2 19 9 7 6 -8 7 -18 5 -22 -6 -9 26 1 43 14 7 6 13 2 18 -11 3 -11
18 -27 33 -34 15 -7 26 -19 24 -25 -3 -18 17 -14 45 8 31 24 49 25 57 3 4 -10
-3 -26 -20 -44 -26 -27 -27 -27 -52 -11 -15 9 -23 12 -19 5 4 -6 2 -13 -5 -15
-7 -3 0 -12 17 -23 17 -10 59 -37 95 -60 36 -24 90 -55 120 -71 30 -15 68 -37
83 -48 23 -17 30 -18 36 -7 6 8 14 10 22 5 12 -6 12 -5 0 9 -11 15 -11 17 2
17 8 0 18 -7 21 -15 5 -14 9 -14 35 0 36 18 48 6 18 -20 l-21 -19 26 -8 c15
-5 30 -18 33 -29 10 -29 40 -23 56 13 l15 31 18 -37 c13 -29 15 -40 6 -51 -10
-11 -7 -15 15 -21 15 -4 41 -2 59 3 29 9 138 -5 152 -20 3 -3 8 -24 11 -46 6
-43 21 -54 61 -46 20 4 49 -25 37 -37 -5 -4 17 -17 68 -37 19 -8 128 -47 232
-83 17 -5 39 -14 50 -19 40 -17 373 -107 495 -134 69 -15 141 -31 160 -35 19
-5 69 -14 110 -20 41 -7 104 -18 140 -24 l65 -13 12 -84 c7 -46 18 -120 24
-164 36 -271 142 -686 229 -900 4 -11 27 -69 51 -130 48 -123 180 -388 254
-510 79 -130 205 -315 235 -345 3 -3 20 -22 38 -43 34 -40 44 -34 15 9 -85
130 -228 435 -315 669 -179 486 -289 1136 -288 1714 0 129 24 533 34 576 3 11
7 43 10 71 l5 52 -42 15 c-23 8 -107 39 -187 67 -80 28 -154 55 -165 60 -11 4
-121 47 -245 96 -124 48 -253 100 -288 115 -34 16 -64 29 -67 29 -6 0 -355
156 -480 215 -203 95 -635 315 -663 338 -10 8 -16 7 -22 -3 -10 -17 -41 -5
-34 13 5 13 -17 27 -228 146 -98 54 -115 65 -140 82 -14 11 -28 19 -31 19 -3
0 -42 23 -87 51 -92 57 -117 69 -106 50 4 -6 2 -19 -6 -28 -11 -14 -14 -12
-18 22 -6 46 -33 68 -52 42 -11 -14 -19 -15 -50 -7 -34 10 -61 40 -35 40 8 0
6 4 -3 10 -13 8 -12 10 3 10 9 0 17 3 17 6 0 9 -32 33 -44 34 -5 0 -2 -8 5
-17 13 -16 12 -17 -3 -5 -10 8 -16 18 -15 22 1 5 -95 74 -213 155 -340 233
-835 613 -914 703 -23 26 -36 28 -36 6z m407 -560 c7 -19 -20 -49 -36 -40 -6
4 -11 18 -11 32 0 17 5 24 20 24 11 0 23 -7 27 -16z m537 -259 c3 -9 -1 -18
-10 -22 -19 -7 -39 11 -30 26 10 16 33 13 40 -4z m-114 -100 c0 -8 -4 -15 -10
-15 -5 0 -10 7 -10 15 0 8 5 15 10 15 6 0 10 -7 10 -15z m314 -30 c-4 -9 -19
-15 -35 -15 -51 0 -31 25 23 29 12 1 15 -4 12 -14z m44 -49 c5 -26 -16 -45
-28 -26 -5 8 -10 23 -10 33 0 24 34 18 38 -7z m107 -36 c20 -39 19 -56 -5 -80
-24 -24 -44 -17 -35 10 4 13 -3 23 -24 36 l-31 18 22 23 c29 31 54 29 73 -7z
m-175 -24 c0 -3 -4 -8 -10 -11 -5 -3 -10 -1 -10 4 0 6 5 11 10 11 6 0 10 -2
10 -4z m100 -36 c0 -5 -6 -10 -14 -10 -8 0 -18 5 -21 10 -3 6 3 10 14 10 12 0
21 -4 21 -10z m352 -57 c24 -21 23 -45 -2 -68 -19 -17 -21 -17 -40 0 -24 22
-25 42 -3 67 20 22 22 22 45 1z m-390 -158 c0 -5 -5 -11 -11 -13 -6 -2 -11 4
-11 13 0 9 5 15 11 13 6 -2 11 -8 11 -13z m506 -168 c4 -21 -25 -34 -40 -19
-8 8 -8 16 2 27 16 19 34 15 38 -8z m272 -8 c0 -5 -4 -9 -10 -9 -5 0 -10 7
-10 16 0 8 5 12 10 9 6 -3 10 -10 10 -16z m-1013 -21 c-3 -8 -6 -5 -6 6 -1 11
2 17 5 13 3 -3 4 -12 1 -19z m956 16 c11 -11 -5 -34 -24 -34 -12 0 -19 7 -19
20 0 19 28 28 43 14z m-290 -44 c-8 -19 -34 -51 -56 -71 -41 -36 -42 -37 -29
-70 11 -31 10 -36 -8 -51 -20 -16 -22 -16 -41 3 -15 15 -18 24 -10 32 6 6 11
19 11 29 0 10 7 21 15 24 8 4 15 13 15 21 0 11 -7 13 -24 9 -14 -3 -32 -3 -40
0 -30 12 3 34 50 34 36 0 44 3 44 18 0 33 28 61 59 59 28 -2 28 -2 14 -37z
m422 -20 c3 -6 -1 -13 -10 -16 -19 -8 -30 0 -20 15 8 14 22 14 30 1z m-1015
-76 c0 -24 -5 -34 -15 -34 -11 0 -15 12 -15 46 0 40 2 45 15 34 8 -7 15 -28
15 -46z m390 16 c-11 -21 -40 -17 -40 6 0 8 10 14 25 14 22 0 24 -3 15 -20z
m977 14 c-3 -3 -12 -4 -19 -1 -8 3 -5 6 6 6 11 1 17 -2 13 -5z m13 -54 c0 -5
-2 -10 -4 -10 -3 0 -8 5 -11 10 -3 6 -1 10 4 10 6 0 11 -4 11 -10z m-1053 -72
c-3 -8 -6 -5 -6 6 -1 11 2 17 5 13 3 -3 4 -12 1 -19z m98 -48 c3 -5 2 -10 -4
-10 -5 0 -13 5 -16 10 -3 6 -2 10 4 10 5 0 13 -4 16 -10z m-68 -32 c-3 -8 -6
-5 -6 6 -1 11 2 17 5 13 3 -3 4 -12 1 -19z m-142 -39 c5 -6 5 -9 -2 -9 -6 0
-17 -2 -25 -5 -7 -3 -19 4 -26 15 -12 19 -11 20 15 14 16 -4 32 -11 38 -15z
m211 -13 c24 -25 18 -48 -13 -44 -22 2 -29 9 -31 31 -4 31 19 37 44 13z m264
-70 c0 -15 -37 -46 -55 -46 -21 0 -19 47 1 58 21 11 54 4 54 -12z m373 -97 c7
-12 4 -24 -14 -48 -15 -20 -25 -27 -28 -19 -2 7 -15 23 -30 35 -26 21 -26 22
-6 37 24 19 64 17 78 -5z m-378 -27 c0 -23 9 -50 23 -69 12 -17 22 -39 22 -49
0 -14 3 -15 12 -6 7 7 18 12 25 12 18 0 17 -64 -2 -80 -8 -7 -15 -23 -15 -36
0 -13 -4 -24 -10 -24 -5 0 -10 9 -10 20 0 10 -9 24 -20 30 -12 6 -20 21 -20
35 0 29 -7 31 -31 9 -17 -16 -19 -15 -28 10 -11 26 -34 35 -46 16 -8 -13 -45
-13 -45 0 0 5 7 13 17 18 21 12 10 42 -17 42 -27 0 -25 9 10 48 24 26 37 32
70 32 27 0 43 5 46 15 11 27 19 16 19 -23z m1545 -27 c0 -8 -7 -15 -15 -15 -8
0 -15 7 -15 15 0 8 7 15 15 15 8 0 15 -7 15 -15z m-1797 -57 c27 -13 37 -30
15 -25 -7 1 -17 -8 -23 -20 -12 -28 -25 -30 -25 -5 0 10 -5 23 -11 29 -11 11
-5 33 10 33 4 0 19 -6 34 -12z m581 -31 c15 -23 -14 -52 -43 -42 -17 5 -20 12
-15 28 12 39 38 45 58 14z m-133 -20 c-1 -12 -15 -9 -19 4 -3 6 1 10 8 8 6 -3
11 -8 11 -12z m-234 -62 c-6 -16 -67 -19 -67 -3 0 26 20 36 46 24 13 -6 22
-15 21 -21z m474 -4 c-8 -5 -20 -7 -28 -4 -21 8 -15 13 15 13 20 0 23 -3 13
-9z m-163 -23 c16 -16 15 -45 -1 -51 -24 -9 -106 5 -111 19 -4 10 4 14 28 14
21 0 36 6 40 15 7 18 28 19 44 3z m-204 -74 c9 -8 16 -18 16 -21 0 -12 -33
-43 -46 -43 -7 0 -15 -6 -17 -12 -3 -8 -6 -6 -6 5 -1 9 -6 26 -13 36 -24 39
33 69 66 35z m1150 10 c20 -8 20 -28 0 -44 -12 -11 -18 -10 -31 3 -9 8 -13 23
-10 31 7 17 16 19 41 10z m-950 -33 c3 -5 0 -11 -8 -14 -15 -6 -26 1 -26 15 0
11 27 10 34 -1z m1510 -16 c3 -9 -1 -18 -10 -22 -19 -7 -39 11 -30 26 10 16
33 13 40 -4z m-1376 -4 c24 -15 10 -46 -22 -49 -37 -5 -51 10 -37 37 12 22 36
27 59 12z m1510 -243 c-4 -27 -23 -34 -32 -13 -8 21 1 35 20 35 10 0 14 -8 12
-22z m-1318 -14 c0 -16 -16 -19 -25 -4 -8 13 4 32 16 25 5 -4 9 -13 9 -21z
m268 -2 c2 -7 -3 -12 -12 -12 -9 0 -16 7 -16 16 0 17 22 14 28 -4z m1218 -86
c-17 -26 -45 -27 -60 -3 -9 15 -7 22 13 38 22 18 25 19 43 3 16 -15 17 -20 4
-38z m-1010 -83 c-10 -10 -19 5 -10 18 6 11 8 11 12 0 2 -7 1 -15 -2 -18z
m814 7 c0 -6 -7 -21 -15 -34 -8 -12 -15 -44 -15 -72 1 -122 -8 -148 -51 -142
-19 2 -23 8 -21 28 2 14 8 27 13 28 16 6 -12 32 -35 32 l-21 0 21 18 c21 16
30 36 39 81 7 37 85 92 85 61z m-260 -45 c15 -18 -2 -45 -30 -45 -23 0 -34 28
-19 46 15 18 33 18 49 -1z m144 -11 c20 -20 20 -30 0 -38 -25 -10 -54 3 -54
23 0 34 28 42 54 15z m176 -78 c0 -29 -22 -39 -47 -21 -10 7 -16 15 -13 17 50
33 60 34 60 4z m-350 -101 c0 -8 -4 -15 -9 -15 -13 0 -22 16 -14 24 11 11 23
6 23 -9z m938 -1421 c4 -27 -26 -40 -46 -20 -21 20 -8 48 20 44 14 -2 24 -11
26 -24z"/>
<path d="M20550 13139 c-66 -61 -359 -302 -389 -321 -12 -7 -24 -21 -27 -30
-3 -10 -13 -18 -22 -18 -9 -1 -71 -41 -137 -90 -113 -83 -531 -368 -675 -458
-66 -42 -309 -188 -345 -208 -11 -6 -83 -47 -160 -91 -287 -164 -836 -441
-1062 -537 -32 -13 -93 -40 -136 -60 -42 -20 -80 -36 -83 -36 -3 0 -34 -13
-68 -29 -33 -16 -185 -77 -336 -136 -151 -59 -284 -111 -295 -115 -21 -9 -142
-52 -255 -90 -36 -13 -70 -27 -76 -32 -12 -9 -11 -35 8 -170 10 -73 11 -77 30
-67 16 8 23 8 29 -2 18 -28 0 -54 -30 -44 l-22 7 8 -109 c4 -59 8 -213 8 -341
0 -127 1 -232 3 -232 1 0 11 5 21 12 28 17 54 3 49 -27 -4 -17 -1 -25 8 -25 8
0 14 8 14 19 0 24 25 45 45 37 17 -6 22 -76 5 -76 -15 0 -12 -26 5 -40 23 -19
44 3 28 29 -10 16 -9 20 3 25 11 4 13 14 8 41 -7 38 6 46 33 20 12 -13 13 -18
3 -31 -7 -8 -10 -18 -6 -21 10 -10 26 18 26 45 0 12 -7 34 -16 48 -17 25 -14
36 9 40 7 1 19 5 28 8 9 4 26 -3 43 -19 28 -26 46 -26 46 1 0 8 7 14 15 14 8
0 15 -7 15 -16 0 -17 0 -17 125 6 215 40 550 124 675 170 30 11 61 20 68 20 7
0 42 14 77 30 47 22 65 36 65 50 0 10 5 22 10 25 6 3 10 24 10 45 0 33 -4 40
-22 44 -44 10 -63 10 -75 3 -7 -5 -13 -4 -13 1 0 6 7 12 15 16 19 7 19 40 1
55 -17 14 -28 51 -15 51 5 0 9 -4 9 -10 0 -5 10 -10 23 -10 17 0 25 8 32 32 6
21 18 34 30 37 38 6 47 22 40 68 -6 44 9 62 22 26 3 -10 15 -28 26 -41 18 -19
27 -21 69 -16 46 6 48 6 48 -19 0 -18 7 -26 23 -31 30 -7 67 3 67 20 0 18 20
28 32 16 8 -8 7 -16 -2 -27 -12 -14 -11 -18 1 -26 24 -15 37 -10 43 16 8 31
24 32 36 3 6 -18 4 -27 -11 -40 -10 -9 -19 -24 -19 -32 0 -9 -6 -19 -14 -22
-19 -7 -9 -41 14 -47 11 -3 27 1 37 9 10 7 13 14 6 14 -20 0 -4 27 20 34 12 3
24 0 28 -6 5 -8 20 -6 53 6 48 18 68 36 42 36 -9 0 -16 5 -16 10 0 14 38 12
42 -2 9 -25 58 20 58 51 0 25 -5 29 -32 34 -18 2 -38 1 -44 -4 -25 -20 -22 20
3 45 29 29 36 31 65 15 11 -6 22 -9 24 -6 8 8 -28 67 -47 77 -28 15 -23 80 6
80 14 0 25 22 25 51 0 25 25 24 44 -2 14 -21 14 -21 25 -1 7 14 17 18 31 15
23 -6 28 15 5 22 -52 16 -49 14 -31 33 9 10 16 23 16 29 0 19 36 42 78 49 55
9 70 26 48 59 -9 13 -16 31 -16 40 0 8 -8 15 -18 15 -10 0 -24 6 -30 12 -10
10 -17 10 -32 0 -24 -15 -27 0 -6 38 12 21 12 26 -1 36 -23 16 -26 64 -5 66 9
0 22 2 29 2 6 1 14 4 17 7 5 5 22 73 30 126 6 35 17 45 41 39 24 -6 45 11 29
23 -12 8 -34 58 -34 77 0 18 24 44 40 44 21 0 42 -30 34 -48 -4 -9 -9 -27 -10
-40 -2 -20 1 -23 24 -20 26 3 27 5 24 51 -5 62 17 97 58 97 39 0 68 -33 76
-87 6 -41 28 -75 24 -37 -1 11 -2 33 -1 50 1 29 5 32 39 38 65 12 73 16 70 39
-4 29 44 42 60 17 9 -14 8 -19 -3 -24 -25 -9 -16 -37 15 -47 32 -12 32 -29 -1
-29 -10 0 -19 -5 -19 -11 0 -7 9 -9 23 -5 12 3 32 6 45 6 20 0 21 2 10 22 -7
12 -19 29 -26 36 -20 22 3 41 56 44 45 3 47 4 50 36 3 30 5 31 19 16 15 -15
15 -20 -7 -60 -19 -34 -22 -46 -12 -56 10 -10 18 -9 41 5 31 18 61 14 61 -8 0
-7 7 -15 15 -19 25 -9 17 -34 -12 -38 -40 -5 -42 -28 -1 -27 18 1 43 -2 56 -6
22 -7 23 -6 17 28 -10 52 5 72 55 73 31 0 39 -3 35 -14 -3 -7 -5 -17 -5 -21 0
-4 -10 -7 -22 -7 -25 1 -37 -29 -18 -48 9 -8 16 -6 27 12 9 12 22 22 29 22 18
0 18 -8 -1 -26 -12 -12 -13 -20 -4 -36 10 -19 12 -20 21 -5 11 20 48 23 48 4
0 -19 45 -15 69 7 15 13 18 23 11 30 -14 14 -12 23 5 23 8 0 15 -5 15 -11 0
-6 10 -1 21 11 25 24 18 43 -15 43 -12 0 -35 14 -51 30 l-29 30 38 0 c33 0 37
2 26 15 -15 18 -7 31 30 50 27 14 29 13 35 -5 3 -10 1 -29 -5 -41 -7 -12 -10
-32 -7 -45 2 -13 0 -21 -4 -18 -5 3 -9 1 -9 -5 0 -20 18 -20 37 2 58 64 188
247 176 247 -4 0 2 6 13 14 20 14 151 228 194 316 12 25 27 54 33 65 73 135
97 198 95 247 -3 46 0 53 21 64 31 16 36 25 82 156 47 133 128 430 129 471 0
26 -10 21 -70 -34z m-336 -618 c8 -13 -4 -41 -18 -41 -22 0 -39 18 -33 34 7
17 42 22 51 7z m90 -27 c4 -9 5 -17 4 -18 -25 -11 -73 -24 -77 -21 -7 7 40 55
55 55 6 0 15 -7 18 -16z m-165 -69 c-13 -14 -17 -14 -34 0 -20 15 -20 15 0 30
17 14 21 14 34 0 14 -13 14 -17 0 -30z m-251 -156 c39 -37 38 -69 -4 -106 -33
-30 -65 -29 -104 4 -28 23 -31 30 -25 62 8 43 19 58 48 64 44 9 53 6 85 -24z
m-178 -3 c0 -8 -4 -17 -8 -20 -13 -8 -35 11 -28 23 10 16 36 14 36 -3z m465 0
c27 -19 13 -48 -22 -44 -31 3 -44 35 -21 49 18 12 21 11 43 -5z m-858 -92 c10
-26 -14 -41 -35 -21 -15 16 -15 19 -2 27 21 14 30 12 37 -6z m663 -69 c15 -18
10 -45 -12 -58 -22 -15 -68 6 -68 31 0 39 55 58 80 27z m-600 -36 c0 -25 -33
-22 -38 4 -2 12 3 17 17 17 15 0 21 -6 21 -21z m-158 -136 c22 -20 23 -39 2
-47 -22 -8 -54 11 -54 33 0 34 23 41 52 14z m116 -6 c4 -20 -25 -34 -40 -19
-15 15 -1 44 19 40 10 -2 19 -11 21 -21z m-410 -6 c20 -12 10 -45 -13 -49 -11
-1 -29 4 -40 13 -20 15 -20 15 -1 30 22 17 35 18 54 6z m157 -16 c0 -22 -31
-33 -47 -17 -17 17 -1 44 24 40 15 -2 23 -10 23 -23z m-70 -45 c3 -5 -3 -10
-14 -10 -12 0 -21 5 -21 10 0 6 6 10 14 10 8 0 18 -4 21 -10z m810 -34 c20
-15 15 -46 -8 -46 -20 0 -40 27 -33 45 7 19 17 19 41 1z m-630 -6 c-3 -5 -10
-10 -16 -10 -5 0 -9 5 -9 10 0 6 7 10 16 10 8 0 12 -4 9 -10z m-242 -17 c9 -9
-13 -34 -24 -27 -14 8 -11 34 4 34 8 0 17 -3 20 -7z m375 -5 c21 -28 24 -59 6
-79 -22 -25 -52 -24 -80 2 -19 18 -21 26 -13 47 6 15 16 30 22 34 19 12 53 9
65 -4z m-235 -12 c6 -16 -10 -26 -30 -19 -15 6 -5 33 12 33 7 0 15 -6 18 -14z
m377 -32 c0 -8 -7 -14 -15 -14 -15 0 -21 21 -9 33 10 9 24 -2 24 -19z m-583 0
c8 -21 -13 -42 -28 -27 -13 13 -5 43 11 43 6 0 13 -7 17 -16z m638 -45 c0 -7
-8 -15 -17 -17 -18 -3 -25 18 -11 32 10 10 28 1 28 -15z m69 -10 c-8 -14 -24
-10 -24 6 0 9 6 12 15 9 8 -4 12 -10 9 -15z m-634 2 c0 -6 -4 -13 -10 -16 -5
-3 -10 1 -10 9 0 9 5 16 10 16 6 0 10 -4 10 -9z m690 0 c0 -16 -28 -20 -34 -5
-4 9 1 14 14 14 11 0 20 -4 20 -9z m-558 -51 c-3 -21 -10 -30 -23 -30 -16 0
-18 5 -13 28 9 37 13 42 28 36 8 -3 11 -16 8 -34z m376 17 c2 -10 -3 -17 -12
-17 -18 0 -29 16 -21 31 9 14 29 6 33 -14z m-1023 -7 c3 -5 1 -10 -4 -10 -6 0
-11 5 -11 10 0 6 2 10 4 10 3 0 8 -4 11 -10z m1279 1 c3 -5 -1 -12 -10 -15
-22 -9 -24 -8 -24 9 0 16 25 21 34 6z m-197 -12 c14 -14 -6 -59 -27 -59 -10 0
-15 11 -16 35 -1 36 19 48 43 24z m68 -9 c-3 -5 -10 -10 -16 -10 -5 0 -9 5 -9
10 0 6 7 10 16 10 8 0 12 -4 9 -10z m-825 -40 c0 -4 -11 -10 -25 -12 -27 -6
-33 10 -13 30 12 12 38 -1 38 -18z m-230 -44 c0 -14 -29 -31 -38 -22 -2 3 -2
12 1 21 8 19 37 20 37 1z m-194 -5 c5 -5 20 -11 33 -13 14 -1 26 -8 28 -15 6
-17 -35 -36 -63 -29 -19 5 -24 13 -24 36 0 31 8 37 26 21z m-218 -33 c4 -23
-36 -45 -44 -23 -9 23 4 47 23 43 10 -2 19 -11 21 -20z m132 -3 c0 -8 -9 -15
-20 -15 -20 0 -26 11 -13 23 12 13 33 7 33 -8z m219 -34 c14 -26 -12 -50 -34
-31 -18 15 -19 37 -2 43 21 9 26 7 36 -12z m191 -90 c0 -24 -18 -37 -32 -23
-8 8 -7 16 2 27 17 21 30 19 30 -4z m-153 -47 c3 -9 8 -11 12 -6 12 19 45 18
49 -2 6 -27 -13 -42 -33 -26 -13 11 -18 10 -31 -8 -19 -28 -40 -28 -54 -1 -9
16 -8 25 6 40 21 23 43 25 51 3z m-217 -64 c0 -5 -4 -10 -10 -10 -5 0 -10 5
-10 10 0 6 5 10 10 10 6 0 10 -4 10 -10z m-387 -16 c9 -10 -4 -34 -18 -34 -17
0 -28 17 -20 30 7 11 28 13 38 4z m172 -34 c-5 -8 -11 -8 -17 -2 -6 6 -7 16
-3 22 5 8 11 8 17 2 6 -6 7 -16 3 -22z m523 8 c18 -18 14 -36 -9 -43 -30 -10
-57 18 -39 39 15 19 32 20 48 4z m-153 -7 c3 -5 1 -12 -5 -16 -5 -3 -10 1 -10
9 0 18 6 21 15 7z m167 -75 c17 -12 17 -14 0 -30 -34 -30 -75 -16 -61 22 9 25
35 28 61 8z m-1229 -13 c9 -9 -13 -34 -24 -27 -14 8 -11 34 4 34 8 0 17 -3 20
-7z m372 -17 c16 -12 17 -16 6 -30 -17 -20 -45 -21 -61 -1 -10 12 -10 18 0 30
16 19 31 19 55 1z m955 -30 c5 -13 14 -26 21 -28 8 -3 10 -11 6 -23 -7 -17 -9
-17 -28 3 -11 12 -24 22 -29 22 -11 0 -14 33 -3 43 12 13 24 7 33 -17z m-1280
-36 c0 -5 -4 -10 -10 -10 -5 0 -10 5 -10 10 0 6 5 10 10 10 6 0 10 -4 10 -10z
m655 -71 c11 -34 -31 -53 -55 -24 -18 21 -5 45 24 45 16 0 27 -7 31 -21z m382
-151 c-3 -8 -6 -5 -6 6 -1 11 2 17 5 13 3 -3 4 -12 1 -19z m-59 -56 c3 -16 -2
-22 -17 -22 -24 0 -33 13 -25 35 9 23 38 14 42 -13z m6 -83 c-23 -25 -67 -22
-72 5 -4 17 0 18 32 13 21 -3 36 -2 36 4 0 6 5 7 11 4 7 -5 4 -14 -7 -26z
m-104 -24 c7 -8 10 -21 7 -30 -5 -12 -12 -11 -40 8 -27 18 -31 23 -18 29 26
11 38 9 51 -7z m-1530 -31 c11 -12 11 -18 -2 -30 -16 -16 -48 -9 -48 10 0 13
20 36 31 36 4 0 12 -7 19 -16z m-140 -19 c0 -19 -20 -29 -32 -17 -15 15 -2 43
17 36 8 -3 15 -12 15 -19z m522 -2 c22 -19 23 -36 4 -52 -19 -16 -43 -4 -50
25 -11 44 12 58 46 27z m551 3 c7 -19 -38 -60 -58 -52 -22 8 -29 34 -15 51 16
19 66 20 73 1z m665 2 c17 -17 15 -48 -3 -48 -14 0 -35 29 -35 49 0 15 23 14
38 -1z m-1463 -18 c9 -15 -14 -40 -31 -33 -22 8 -18 43 5 43 11 0 23 -5 26
-10z m-370 -59 c3 -5 1 -12 -5 -16 -5 -3 -10 1 -10 9 0 18 6 21 15 7z m1831
-2 c9 -16 -12 -33 -31 -25 -14 5 -15 9 -5 21 15 18 26 19 36 4z m-612 -94 c10
-11 13 -26 9 -53 -7 -48 -16 -57 -42 -40 -17 10 -20 19 -15 48 6 31 20 60 30
60 1 0 9 -7 18 -15z m-261 -20 c8 -18 -11 -31 -25 -17 -11 11 -3 32 12 32 4 0
10 -7 13 -15z m182 -23 c6 -22 5 -23 -14 -13 -21 12 -27 31 -14 45 9 8 19 -3
28 -32z m173 -54 c18 -18 15 -25 -14 -32 -31 -8 -47 4 -38 27 7 20 35 22 52 5z
m-668 -37 c0 -14 -28 -33 -40 -26 -20 12 -10 35 15 35 14 0 25 -4 25 -9z
m-324 -19 c6 -4 15 -17 19 -30 6 -21 4 -23 -17 -20 -17 2 -24 10 -26 31 -3 27
4 33 24 19z m674 -52 c0 -5 -7 -10 -16 -10 -8 0 -12 5 -9 10 3 6 10 10 16 10
5 0 9 -4 9 -10z m-952 -85 c5 -36 -22 -59 -49 -44 -26 13 -24 44 3 63 30 21
42 16 46 -19z m218 14 c3 -6 22 -17 40 -25 19 -8 34 -18 34 -22 0 -4 -20 -18
-45 -31 -42 -22 -46 -23 -63 -7 -27 24 -42 20 -42 -11 0 -16 -5 -35 -10 -43
-9 -13 -11 -13 -20 0 -19 29 -9 100 14 100 6 1 25 12 41 25 34 28 41 30 51 14z
m754 -3 c0 -2 -7 -6 -15 -10 -8 -3 -15 -1 -15 4 0 6 7 10 15 10 8 0 15 -2 15
-4z m-341 -40 c17 -20 -13 -43 -34 -26 -12 10 -13 16 -4 26 6 8 15 14 19 14 4
0 13 -6 19 -14z m-263 -31 c7 -18 -12 -45 -32 -45 -16 0 -37 37 -29 50 10 16
55 12 61 -5z m-382 -121 c9 -23 2 -28 -29 -20 -14 4 -25 13 -25 21 0 21 46 19
54 -1z"/>
<path d="M5610 12745 c-11 -13 -8 -15 20 -15 21 0 30 4 28 13 -7 18 -33 20
-48 2z"/>
<path d="M11418 12053 c7 -3 16 -2 19 1 4 3 -2 6 -13 5 -11 0 -14 -3 -6 -6z"/>
<path d="M13568 12053 c6 -2 18 -2 25 0 6 3 1 5 -13 5 -14 0 -19 -2 -12 -5z"/>
<path d="M11340 12031 c-8 -5 -26 -13 -40 -19 -333 -135 -693 -378 -970 -652
-407 -403 -683 -880 -824 -1421 -19 -75 -20 -86 -6 -85 25 2 19 -38 -7 -42
-17 -3 -24 -12 -28 -40 -4 -20 -10 -57 -15 -82 -28 -145 -50 -386 -50 -555 0
-181 27 -449 59 -600 5 -22 14 -62 20 -90 17 -84 51 -205 83 -300 32 -95 126
-324 138 -338 4 -5 17 -3 29 5 20 12 25 10 53 -21 l31 -34 -36 -15 c-36 -14
-36 -14 -23 -46 26 -61 67 -120 76 -106 10 16 43 5 37 -13 -2 -6 -12 -11 -21
-11 -9 1 -16 0 -16 -2 0 -17 66 -116 85 -128 14 -9 25 -24 25 -34 0 -9 5 -24
10 -32 9 -13 11 -13 20 0 7 12 10 8 10 -15 0 -16 8 -39 16 -50 14 -19 16 -19
25 -3 7 13 15 15 33 8 21 -8 24 -5 30 22 3 17 6 53 6 79 0 43 3 51 23 58 13 5
29 23 36 39 11 26 10 34 -4 56 -10 14 -22 26 -27 26 -5 0 -7 4 -4 8 3 5 -7 7
-22 5 -37 -5 -106 60 -98 91 3 11 6 29 6 39 0 9 5 17 11 17 6 0 8 -11 5 -28
-8 -32 14 -69 33 -58 7 5 10 14 7 21 -6 16 19 39 33 31 6 -4 15 2 20 13 16 29
14 31 -20 21 -39 -11 -49 -6 -49 26 0 30 21 40 50 24 18 -10 22 -9 27 9 9 36
23 11 17 -30 -8 -46 7 -52 23 -9 8 20 18 30 32 30 12 0 24 7 27 15 4 8 10 13
14 10 15 -9 40 26 40 54 0 15 -13 46 -28 67 -15 21 -57 89 -93 149 -277 468
-405 974 -385 1523 13 337 65 589 189 906 205 528 577 983 1062 1301 137 90
328 195 355 195 5 0 10 5 10 10 0 12 -19 12 -40 1z m-1675 -2651 c3 -5 -3 -10
-15 -10 -12 0 -18 5 -15 10 3 6 10 10 15 10 5 0 12 -4 15 -10z m413 -1414 c4
-34 -8 -49 -31 -40 -20 7 -22 45 -5 62 18 18 33 9 36 -22z m120 -68 c21 -27
24 -58 7 -65 -21 -7 -35 12 -35 50 0 29 11 35 28 15z m-263 -358 c7 -23 -1
-40 -20 -40 -19 0 -25 13 -18 38 7 27 30 29 38 2z m108 5 c-3 -9 -8 -14 -10
-11 -3 3 -2 9 2 15 9 16 15 13 8 -4z m3 -142 c-10 -26 -29 1 -21 28 7 20 8 21
17 5 5 -9 7 -24 4 -33z"/>
<path d="M13610 12036 c0 -2 51 -29 113 -60 207 -103 387 -224 567 -382 205
-181 339 -333 487 -554 166 -249 277 -491 357 -775 33 -117 41 -152 67 -285 7
-36 19 -70 28 -76 12 -9 13 -15 4 -26 -9 -10 -9 -47 -3 -138 5 -69 10 -168 10
-221 0 -89 2 -98 23 -113 l22 -15 -25 -22 c-22 -19 -25 -32 -32 -117 -4 -53
-5 -99 -2 -101 2 -2 13 4 25 15 21 19 21 19 17 -11 -2 -24 -8 -31 -30 -33 -23
-3 -28 -8 -28 -30 0 -15 -4 -43 -9 -62 -5 -19 -12 -55 -15 -80 -6 -41 -5 -43
9 -26 12 16 18 17 27 8 9 -9 8 -12 -4 -12 -9 0 -20 -9 -23 -20 -3 -11 -11 -20
-16 -20 -5 0 -9 -13 -9 -29 0 -17 -4 -33 -10 -36 -18 -11 -10 -25 14 -25 13 0
35 -9 49 -20 21 -17 25 -27 22 -62 l-3 -42 -52 -4 c-29 -1 -58 2 -64 7 -10 8
-16 2 -24 -25 -6 -20 -8 -42 -5 -50 3 -8 -2 -20 -10 -27 -9 -7 -28 -43 -43
-82 -136 -347 -405 -739 -672 -982 -53 -48 -99 -90 -102 -93 -49 -52 -235
-185 -375 -269 -80 -48 -110 -72 -103 -79 18 -18 1 -42 -32 -42 -28 0 -30 -2
-30 -40 0 -38 -2 -40 -29 -40 -32 0 -47 27 -24 45 7 6 9 15 4 23 -6 11 -15 10
-45 -4 -24 -12 -32 -20 -24 -25 9 -6 8 -10 -5 -15 -14 -5 -16 -14 -11 -45 4
-25 3 -39 -4 -39 -15 0 -35 -74 -22 -78 6 -2 10 -10 10 -19 0 -8 9 -28 20 -44
23 -31 47 -30 52 4 5 34 27 31 42 -5 8 -19 26 -40 40 -48 l26 -13 -36 -25
c-33 -22 -36 -28 -31 -61 5 -43 -14 -77 -38 -67 -24 9 -29 35 -11 55 9 10 16
22 16 28 0 16 -35 43 -57 43 -24 0 -74 51 -55 57 22 8 12 32 -15 35 -35 4 -45
37 -14 45 25 6 26 21 5 51 l-16 23 -15 -20 c-8 -12 -21 -21 -30 -21 -13 0 -15
9 -11 50 5 51 0 58 -35 44 -13 -5 -12 -12 3 -55 19 -52 14 -64 -23 -55 -12 3
-16 3 -9 0 6 -3 12 -12 12 -19 0 -18 -21 -24 -42 -13 -18 9 -17 38 2 99 7 23
6 26 -10 22 -10 -3 -23 -18 -29 -34 -11 -32 -41 -39 -63 -15 -10 11 -21 11
-63 0 -276 -74 -669 -111 -890 -84 -44 5 -111 11 -150 14 -38 2 -77 7 -85 10
-8 3 -71 17 -139 31 -84 17 -128 22 -135 15 -15 -15 -37 -12 -58 6 -16 16 -18
16 -24 0 -3 -9 -14 -16 -24 -16 -10 0 -23 -7 -30 -15 -21 -25 -39 -17 -46 20
-4 24 -12 35 -23 35 -18 0 -61 -39 -61 -56 0 -6 -15 -8 -34 -6 -28 3 -37 10
-45 33 -5 16 -15 29 -21 29 -6 0 -10 10 -8 23 2 16 -3 23 -19 25 -13 2 -23 -1
-23 -7 0 -6 -11 -21 -25 -33 -25 -22 -34 -58 -15 -58 6 0 16 11 22 25 14 32
41 32 62 0 21 -32 20 -42 -4 -55 -39 -21 -160 62 -160 110 0 23 -4 24 -29 8
-14 -9 -23 -8 -42 5 -29 21 -47 21 -88 1 -35 -17 -61 -13 -61 11 0 9 -9 15
-25 15 -22 0 -24 -2 -14 -24 16 -33 -12 -86 -41 -79 -25 7 -36 44 -21 71 15
28 14 42 -4 42 -8 0 -15 -9 -15 -19 0 -11 -16 -32 -35 -47 -19 -15 -38 -37
-41 -50 -3 -12 -12 -25 -20 -28 -8 -3 -14 -14 -14 -25 0 -14 -5 -18 -20 -14
-21 6 -24 20 -20 91 2 37 -1 42 -19 42 -20 0 -26 12 -22 52 3 24 -24 17 -59
-17 -22 -21 -33 -26 -41 -18 -8 8 -7 17 5 34 23 34 20 58 -9 64 -14 3 -36 7
-50 10 -18 4 -27 0 -36 -16 -8 -15 -14 -18 -22 -10 -15 15 -57 14 -58 -1 -1
-7 -2 -22 -3 -33 -1 -14 -8 -20 -26 -20 -19 0 -24 5 -22 20 2 14 -8 29 -29 44
-25 19 -30 28 -25 50 3 14 8 41 12 59 6 32 28 43 37 20 4 -10 6 -10 6 0 1 6 9
12 19 12 38 1 91 77 68 100 -8 9 -6 11 9 8 12 -2 21 3 23 14 2 11 -6 18 -28
23 -17 4 -34 14 -37 23 -4 10 -12 20 -19 24 -12 8 -12 38 1 96 10 43 -13 43
-48 0 -23 -26 -29 -29 -42 -18 -14 11 -17 10 -22 -9 -4 -15 -12 -21 -27 -19
-17 2 -22 -3 -24 -27 -4 -28 -34 -65 -54 -65 -5 0 -8 -10 -6 -22 2 -17 11 -24
33 -26 36 -4 55 -26 55 -65 0 -26 -3 -28 -24 -23 -28 7 -81 -45 -64 -62 8 -8
8 -16 -1 -26 -11 -13 -9 -21 8 -44 30 -42 89 -92 109 -92 12 0 14 -2 4 -8 -9
-6 3 -22 40 -57 29 -27 70 -64 90 -83 20 -19 48 -36 62 -37 35 -4 45 -12 40
-33 -4 -18 38 -52 195 -159 67 -45 77 -49 83 -33 4 10 11 21 17 24 12 8 24
-26 16 -46 -7 -18 3 -27 85 -73 317 -176 673 -304 1003 -360 774 -129 1546 28
2203 451 295 190 588 465 810 761 163 216 316 501 412 763 28 78 92 285 92
299 0 2 -11 1 -24 -3 -26 -6 -37 0 -30 19 3 7 13 11 23 8 24 -6 48 24 33 39
-19 19 -14 56 8 63 26 8 25 17 -1 34 -18 10 -23 10 -30 0 -4 -7 -6 -16 -3 -20
2 -4 -3 -9 -11 -13 -11 -4 -15 2 -15 19 0 14 4 25 8 25 5 0 15 11 22 25 10 19
16 22 23 13 6 -9 7 -7 3 5 -3 10 -6 20 -6 23 0 2 -13 1 -30 -2 -55 -11 -80 36
-40 76 24 24 26 45 4 36 -17 -6 -84 13 -84 24 0 3 7 16 16 28 11 16 24 21 52
20 40 -1 82 19 82 39 0 7 9 13 20 13 15 0 20 7 20 25 0 17 -4 23 -15 19 -8 -3
-20 -2 -27 2 -19 12 -62 4 -71 -12 -11 -20 -21 -18 -57 12 -29 25 -30 28 -15
44 9 10 16 29 15 42 -1 13 -2 47 -1 76 1 52 3 56 57 108 59 57 86 68 79 34 -2
-11 0 -20 5 -20 5 0 24 -16 42 -35 l32 -35 13 31 c15 37 10 49 -17 42 -16 -4
-20 0 -20 17 0 13 8 24 20 27 23 6 27 28 5 37 -19 7 -19 26 0 26 23 0 12 179
-26 420 -76 480 -281 954 -587 1358 -48 63 -56 70 -67 55 -14 -19 -45 -11 -45
13 0 9 9 18 21 21 19 5 18 8 -12 39 -18 19 -39 34 -46 34 -7 0 -13 9 -13 20 0
11 -46 65 -112 133 -244 245 -510 436 -818 588 -80 40 -156 76 -170 82 -14 5
-33 13 -42 18 -18 9 -48 12 -48 5z m1540 -1671 c0 -8 -7 -15 -15 -15 -8 0 -15
7 -15 15 0 8 7 15 15 15 8 0 15 -7 15 -15z m380 -803 c0 -26 -10 -33 -31 -21
-28 14 -24 39 6 39 18 0 25 -5 25 -18z m-62 -164 c3 -13 -3 -18 -22 -18 -20 0
-26 5 -26 21 0 15 5 20 22 17 13 -2 24 -11 26 -20z m87 -48 c9 -28 -13 -54
-31 -39 -17 14 -18 31 -2 47 17 17 26 15 33 -8z m-55 -100 c0 -5 -4 -10 -10
-10 -5 0 -10 5 -10 10 0 6 5 10 10 10 6 0 10 -4 10 -10z m-3 -46 c-3 -3 -12
-4 -19 -1 -8 3 -5 6 6 6 11 1 17 -2 13 -5z m-159 -111 c16 -37 15 -80 -3 -87
-11 -4 -15 2 -16 27 0 18 -2 44 -3 60 -2 34 5 34 22 0z m-37 -140 c15 -39 6
-53 -28 -44 -27 8 -31 20 -18 59 8 22 35 13 46 -15z m-194 -579 c-3 -3 -12 -4
-19 -1 -8 3 -5 6 6 6 11 1 17 -2 13 -5z m292 -32 c6 -12 4 -24 -9 -39 l-18
-23 -15 24 c-14 21 -14 26 -1 45 16 23 28 21 43 -7z m-312 -128 c-9 -9 -28 6
-21 18 4 6 10 6 17 -1 6 -6 8 -13 4 -17z m210 -10 c-3 -3 -12 -4 -19 -1 -8 3
-5 6 6 6 11 1 17 -2 13 -5z m103 -64 c0 -5 -2 -10 -4 -10 -3 0 -8 5 -11 10 -3
6 -1 10 4 10 6 0 11 -4 11 -10z m-415 -190 c0 -16 -6 -26 -19 -28 -27 -6 -40
12 -26 38 15 28 45 22 45 -10z m-31 -115 c3 -9 -1 -18 -10 -22 -19 -7 -28 2
-21 22 8 19 23 19 31 0z m80 0 c-4 -8 -12 -15 -20 -15 -8 0 -14 7 -14 15 0 8
9 15 20 15 13 0 18 -5 14 -15z m46 -265 c0 -5 -4 -10 -9 -10 -6 0 -13 5 -16
10 -3 6 1 10 9 10 9 0 16 -4 16 -10z m-515 -145 c0 -22 -31 -33 -47 -17 -17
17 -1 44 24 40 15 -2 23 -10 23 -23z m-4155 -103 c0 -4 -9 -8 -20 -9 -14 -1
-20 4 -20 18 0 17 3 18 20 9 11 -6 20 -14 20 -18z m20 -92 c8 -16 6 -22 -14
-36 -31 -20 -46 -11 -46 27 0 24 4 29 25 29 14 0 29 -8 35 -20z m30 16 c0 -3
-4 -8 -10 -11 -5 -3 -10 -1 -10 4 0 6 5 11 10 11 6 0 10 -2 10 -4z m4054 -61
c3 -9 0 -15 -9 -15 -8 0 -15 7 -15 15 0 8 4 15 9 15 5 0 11 -7 15 -15z m-4185
-79 c15 -18 4 -86 -14 -86 -16 0 -25 23 -25 66 0 36 18 45 39 20z m249 -161
c1 -11 -3 -29 -11 -39 -12 -16 -20 -17 -52 -10 -42 10 -60 34 -26 34 12 0 29
9 39 20 21 25 46 22 50 -5z m489 -97 c-3 -7 -5 -2 -5 12 0 14 2 19 5 13 2 -7
2 -19 0 -25z m2723 22 c0 -5 -2 -10 -4 -10 -3 0 -8 5 -11 10 -3 6 -1 10 4 10
6 0 11 -4 11 -10z m-2886 -81 c-3 -5 -10 -7 -15 -3 -5 3 -7 10 -3 15 3 5 10 7
15 3 5 -3 7 -10 3 -15z m2329 1 c-4 -16 -8 -18 -19 -9 -16 13 -10 29 11 29 8
0 11 -7 8 -20z m-1450 4 c10 -11 -4 -33 -18 -28 -8 3 -11 12 -8 20 5 15 16 18
26 8z m92 -44 c7 -12 -32 -80 -46 -80 -13 0 -11 64 3 78 15 15 35 16 43 2z
m-1155 -15 c0 -2 -9 -9 -20 -15 -23 -12 -64 -4 -55 11 6 9 75 13 75 4z m2680
-25 c0 -11 -7 -20 -15 -20 -15 0 -21 21 -8 33 12 13 23 7 23 -13z m-2600 0 c0
-7 13 -9 33 -5 37 7 64 -13 53 -40 -10 -27 -36 -29 -62 -4 -19 17 -27 20 -36
11 -16 -16 -34 -15 -52 3 -23 24 -9 45 30 45 19 0 34 -5 34 -10z m3201 -6 c9
-11 10 -20 2 -32 -14 -22 -53 -22 -67 1 -9 15 -7 21 8 33 25 18 40 18 57 -2z
m-1773 -9 c14 -14 -19 -27 -52 -21 -35 7 -43 15 -28 30 7 8 70 1 80 -9z m1119
-30 c1 -5 -2 -17 -7 -25 -12 -18 -43 -3 -48 24 -3 14 2 17 24 14 15 -2 29 -7
31 -13z m-1763 -46 c-3 -5 -10 -7 -15 -3 -5 3 -7 10 -3 15 3 5 10 7 15 3 5 -3
7 -10 3 -15z m66 -18 c0 -6 -7 -11 -15 -11 -9 0 -15 10 -15 26 0 23 2 24 15
10 8 -8 15 -19 15 -25z m-262 -12 c-16 -10 -33 5 -23 21 5 8 11 8 21 -1 12
-10 12 -14 2 -20z m2222 17 c0 -11 -19 -15 -25 -6 -3 5 1 10 9 10 9 0 16 -2
16 -4z m-2120 -34 c0 -26 -11 -34 -27 -21 -20 17 -16 39 7 39 13 0 20 -7 20
-18z m1308 -20 c4 -30 -26 -42 -44 -17 -10 14 -11 22 -2 32 16 20 42 12 46
-15z m242 19 c0 -6 -4 -13 -10 -16 -5 -3 -10 1 -10 9 0 9 5 16 10 16 6 0 10
-4 10 -9z m-2042 -43 c-2 -13 -7 -23 -13 -23 -5 0 -11 10 -13 23 -2 15 2 22
13 22 11 0 15 -7 13 -22z m432 8 c0 -7 -7 -19 -15 -26 -19 -16 -41 1 -32 24 8
20 47 21 47 2z m115 -6 c-3 -5 -10 -10 -16 -10 -5 0 -9 5 -9 10 0 6 7 10 16
10 8 0 12 -4 9 -10z m2420 -45 c0 -10 -6 -20 -12 -22 -8 -3 -13 5 -13 22 0 17
5 25 13 23 6 -3 12 -13 12 -23z m-856 -14 c19 -12 6 -41 -18 -41 -23 0 -35 15
-27 35 6 17 24 19 45 6z m-729 -20 c0 -27 -19 -36 -37 -18 -18 18 -9 37 18 37
12 0 19 -7 19 -19z m1027 -30 c7 -20 20 -31 42 -36 17 -3 31 -11 31 -15 0 -5
-17 -22 -37 -37 -21 -15 -41 -32 -45 -38 -5 -6 -14 -1 -24 13 -9 13 -27 28
-41 33 -30 11 -26 31 8 39 13 3 25 14 27 25 9 54 22 59 39 16z m454 3 c11 -14
10 -18 -6 -30 -32 -24 -52 -11 -40 26 8 24 28 26 46 4z m-2281 -35 c0 -12 -7
-19 -19 -19 -23 0 -32 19 -19 43 7 15 12 16 24 6 8 -6 14 -20 14 -30z m2128
-44 c-3 -3 -13 -2 -22 1 -14 5 -15 9 -4 15 13 8 36 -6 26 -16z m-482 4 c3 -6
1 -16 -5 -22 -9 -9 -14 -8 -21 3 -9 15 -4 30 10 30 5 0 12 -5 16 -11z m-816
-14 c0 -8 -4 -15 -10 -15 -5 0 -10 7 -10 15 0 8 5 15 10 15 6 0 10 -7 10 -15z
m-80 -130 c0 -19 -20 -29 -32 -17 -15 15 -2 43 17 36 8 -3 15 -12 15 -19z
m400 -140 c0 -18 -5 -25 -20 -25 -20 0 -28 28 -13 43 15 16 33 6 33 -18z"/>
<path d="M18974 11566 c-10 -8 -15 -18 -11 -22 4 -4 15 0 24 9 22 21 12 31
-13 13z"/>
<path d="M19320 11546 c0 -8 4 -17 9 -20 15 -10 40 5 34 20 -7 18 -43 18 -43
0z"/>
<path d="M19095 11500 c-3 -5 3 -10 14 -10 12 0 21 5 21 10 0 6 -6 10 -14 10
-8 0 -18 -4 -21 -10z"/>
<path d="M19220 11487 c0 -8 7 -18 16 -21 11 -4 14 -1 12 11 -4 21 -28 30 -28
10z"/>
<path d="M19575 11470 c-3 -5 -2 -10 4 -10 5 0 13 5 16 10 3 6 2 10 -4 10 -5
0 -13 -4 -16 -10z"/>
<path d="M19403 11460 c9 -6 17 -20 17 -30 0 -11 4 -20 9 -20 18 0 -5 55 -25
58 -18 3 -18 2 -1 -8z"/>
<path d="M19570 11446 c0 -2 7 -6 15 -10 8 -3 15 -1 15 4 0 6 -7 10 -15 10 -8
0 -15 -2 -15 -4z"/>
<path d="M19532 11428 c-16 -16 -15 -28 3 -28 8 0 15 2 15 4 0 2 3 11 6 20 7
19 -7 21 -24 4z"/>
<path d="M18896 11401 c-4 -5 -2 -12 3 -15 5 -4 12 -2 15 3 4 5 2 12 -3 15 -5
4 -12 2 -15 -3z"/>
<path d="M18742 11256 c1 -10 8 -17 13 -17 15 1 12 24 -3 29 -9 3 -13 -2 -10
-12z"/>
<path d="M18834 11259 c-3 -6 -1 -16 5 -22 8 -8 11 -5 11 11 0 24 -5 28 -16
11z"/>
<path d="M18733 11203 c-18 -6 -16 -23 1 -23 17 0 30 16 19 23 -5 2 -14 2 -20
0z"/>
<path d="M18590 10806 c0 -9 7 -16 16 -16 17 0 14 22 -4 28 -7 2 -12 -3 -12
-12z"/>
<path d="M18600 10716 c0 -9 5 -16 10 -16 6 0 10 4 10 9 0 6 -4 13 -10 16 -5
3 -10 -1 -10 -9z"/>
<path d="M18610 10649 c0 -5 5 -7 10 -4 6 3 10 8 10 11 0 2 -4 4 -10 4 -5 0
-10 -5 -10 -11z"/>
<path d="M18618 10605 c-3 -14 -1 -25 3 -25 5 0 9 11 9 25 0 14 -2 25 -4 25
-2 0 -6 -11 -8 -25z"/>
<path d="M6520 10500 c8 -5 20 -10 25 -10 6 0 3 5 -5 10 -8 5 -19 10 -25 10
-5 0 -3 -5 5 -10z"/>
<path d="M6706 10418 c6 -9 71 -38 84 -38 5 0 3 11 -3 25 -10 21 -18 25 -49
23 -20 -1 -35 -6 -32 -10z"/>
<path d="M5690 10386 c0 -8 9 -20 21 -26 23 -13 54 -6 44 10 -9 15 -27 12 -19
-2 4 -8 3 -10 -2 -5 -5 5 -9 14 -9 20 0 7 -8 13 -17 15 -11 2 -18 -3 -18 -12z"/>
<path d="M18107 10373 c-3 -5 -2 -15 2 -21 9 -15 43 -4 38 12 -5 14 -33 20
-40 9z"/>
<path d="M5773 10354 c0 -7 4 -11 8 -8 13 8 22 -43 11 -63 -8 -13 -6 -25 6
-45 16 -28 42 -45 42 -28 0 5 11 7 25 4 14 -2 25 0 25 6 0 5 9 10 20 10 11 0
20 3 20 8 0 4 8 12 18 19 17 10 18 8 14 -13 -2 -13 -11 -24 -19 -24 -20 0 -10
-24 12 -28 10 -2 21 2 25 9 7 10 22 9 79 -3 39 -9 71 -12 71 -7 0 5 10 9 23 9
27 1 -43 28 -87 34 -16 2 -35 10 -41 17 -13 17 -51 39 -66 39 -7 0 -35 11 -63
24 -103 48 -123 55 -123 40z"/>
<path d="M17975 10349 c-10 -15 4 -61 16 -57 6 2 10 7 10 11 -1 4 -1 18 -1 32
0 26 -14 33 -25 14z"/>
<path d="M18023 10331 c1 -12 7 -21 15 -21 16 0 12 32 -5 37 -7 3 -11 -4 -10
-16z"/>
<path d="M13040 10268 c-135 -5 -476 -6 -758 -3 -412 5 -513 3 -516 -7 -19
-61 -115 -442 -113 -445 2 -2 39 17 82 41 43 25 101 51 129 58 54 14 289 18
319 6 16 -7 17 -48 17 -675 0 -367 -4 -707 -10 -755 -10 -98 -32 -157 -78
-210 -17 -19 -29 -38 -25 -42 9 -9 801 -8 807 2 2 4 -13 34 -35 65 -77 116
-74 75 -77 888 l-3 726 33 7 c78 16 179 18 244 6 85 -16 98 -22 151 -73 46
-44 43 -45 62 33 53 229 81 357 81 375 0 11 -9 15 -32 13 -18 0 -143 -5 -278
-10z m-185 -208 c3 -5 1 -10 -4 -10 -6 0 -11 5 -11 10 0 6 2 10 4 10 3 0 8 -4
11 -10z m-385 -75 c0 -8 -7 -15 -15 -15 -8 0 -15 7 -15 15 0 8 7 15 15 15 8 0
15 -7 15 -15z m-20 -450 c0 -8 -7 -15 -15 -15 -16 0 -20 12 -8 23 11 12 23 8
23 -8z m223 -1262 c-7 -2 -19 -2 -25 0 -7 3 -2 5 12 5 14 0 19 -2 13 -5z"/>
<path d="M6187 10189 c7 -7 15 -10 18 -7 3 3 -2 9 -12 12 -14 6 -15 5 -6 -5z"/>
<path d="M5990 10160 c0 -11 -4 -20 -10 -20 -5 0 -10 -10 -10 -22 0 -13 -4
-29 -9 -37 -7 -11 -10 -11 -17 0 -5 8 -9 19 -9 24 -1 6 -6 9 -13 8 -6 -2 -9 3
-6 10 2 7 -5 22 -17 33 -13 10 -19 14 -16 7 4 -6 3 -13 -2 -15 -5 -1 16 -31
47 -66 53 -59 85 -74 61 -30 -6 11 -8 22 -5 26 3 3 6 0 6 -6 0 -9 6 -9 25 0
27 12 34 53 15 89 -14 25 -40 25 -40 -1z"/>
<path d="M6220 10171 c0 -7 -6 -11 -14 -8 -14 6 -14 -13 -1 -73 6 -27 10 -31
30 -26 29 7 44 -13 22 -29 -22 -16 -21 -23 5 -44 16 -14 19 -24 14 -45 -6 -23
-9 -26 -21 -16 -8 7 -15 19 -15 26 0 17 -41 19 -57 3 -8 -8 -15 -4 -26 17 -12
24 -13 39 -4 83 9 43 9 55 -1 59 -9 3 -10 8 -3 16 7 8 4 15 -9 23 -15 10 -19
9 -24 -3 -3 -9 -4 -20 0 -25 3 -5 0 -9 -6 -9 -7 0 -9 -7 -6 -16 3 -8 2 -12 -4
-9 -6 3 -10 0 -10 -8 0 -8 -8 -17 -19 -20 -13 -3 -20 -16 -23 -41 -2 -20 0
-36 5 -36 4 0 5 -4 2 -10 -3 -5 -2 -10 3 -10 6 0 8 -9 5 -20 -4 -16 2 -23 26
-31 17 -6 29 -15 26 -19 -11 -18 188 -186 206 -174 7 4 9 3 6 -3 -4 -6 4 -19
16 -30 35 -32 42 -33 43 -7 1 13 -2 24 -7 24 -5 0 -9 7 -9 15 0 8 -6 12 -14 9
-19 -7 -39 32 -32 62 4 14 16 26 30 30 14 3 32 14 42 25 9 10 25 19 34 19 24
0 40 20 40 52 0 35 16 36 60 3 37 -28 80 -33 80 -11 0 8 -10 16 -22 18 -15 2
-23 10 -23 23 0 21 13 23 66 10 22 -6 27 -3 33 17 7 22 7 22 16 3 5 -14 3 -24
-6 -31 -8 -6 -14 -16 -14 -22 0 -6 -6 -12 -12 -15 -10 -3 -10 -7 1 -20 7 -9
11 -27 8 -39 -8 -28 9 -58 31 -58 19 0 56 30 65 52 10 22 47 -31 47 -66 0 -18
5 -37 12 -44 9 -9 8 -15 -8 -26 -15 -12 -17 -17 -6 -27 21 -22 14 -34 -38 -58
l-51 -24 23 -24 c20 -22 21 -25 6 -40 -24 -24 -97 -7 -109 25 -6 15 -5 21 1
17 6 -3 10 1 10 9 0 8 -4 18 -10 21 -17 10 -11 37 9 42 12 3 21 17 25 41 7 43
4 46 -27 38 -19 -4 -26 -15 -31 -41 -4 -21 -14 -38 -24 -41 -9 -3 -23 -8 -31
-10 -11 -4 -10 -7 4 -18 10 -7 19 -23 20 -34 1 -17 -1 -19 -12 -11 -10 9 -17
8 -29 -1 -13 -12 -11 -16 16 -33 27 -17 33 -18 41 -6 7 12 9 12 9 -1 0 -13 1
-13 10 0 9 13 12 13 25 -3 7 -11 11 -25 9 -32 -3 -7 4 -18 15 -24 25 -14 34
-14 26 -1 -3 6 -1 10 6 10 8 0 8 4 -1 15 -10 12 -10 15 4 15 14 0 21 -12 17
-33 -1 -4 6 -10 14 -13 8 -4 15 -15 15 -25 0 -14 30 -33 123 -77 67 -32 149
-69 182 -81 33 -13 69 -27 80 -31 193 -81 566 -159 824 -173 l45 -2 66 -130
c79 -156 113 -212 201 -330 124 -167 154 -191 105 -83 -56 123 -108 266 -156
428 -12 41 -26 86 -30 100 -5 14 -21 75 -37 137 -23 94 -30 110 -42 100 -11
-9 -15 -9 -19 2 -8 24 -53 61 -76 62 -20 1 -20 2 -1 6 28 7 75 53 75 74 0 10
-8 56 -19 101 -10 46 -24 110 -31 144 l-12 61 -157 6 c-185 8 -354 31 -551 78
-52 12 -106 22 -120 23 -14 0 -27 3 -30 7 -3 4 -14 9 -25 11 -16 2 -20 -2 -20
-22 1 -35 -56 -75 -85 -60 -11 6 -20 14 -20 18 0 7 -50 35 -81 45 -12 4 -15 0
-11 -19 3 -16 -1 -26 -12 -30 -9 -3 -16 -12 -16 -20 0 -8 -5 -14 -11 -14 -6 0
-9 7 -6 15 4 8 2 17 -3 20 -23 14 -9 45 25 59 40 17 48 40 11 30 -37 -9 -69
12 -62 42 6 21 3 24 -23 24 -16 0 -33 -4 -36 -10 -9 -15 -88 -13 -83 3 3 6 15
14 27 15 15 2 21 0 17 -7 -4 -6 -3 -11 2 -11 6 0 12 6 15 14 7 16 -52 41 -90
38 -12 -1 -26 4 -30 11 -11 17 -200 80 -215 71 -7 -4 -10 -3 -5 1 6 8 -43 35
-63 35 -4 0 -11 -12 -14 -26 -8 -30 -42 -30 -60 -1 -9 15 -7 21 8 32 18 14 18
15 -5 23 -13 5 -30 7 -38 4 -7 -3 -17 1 -22 9 -7 12 -9 12 -9 0z m355 -132 c5
-6 4 -9 -3 -9 -7 0 -12 -6 -12 -14 0 -9 -7 -12 -20 -9 -11 3 -20 13 -20 23 0
10 -6 21 -12 24 -7 3 3 3 22 0 19 -3 39 -10 45 -15z m-210 -4 c0 -5 -10 -11
-22 -13 -16 -2 -23 2 -23 13 0 11 7 15 23 13 12 -2 22 -7 22 -13z m15 -110
c17 -20 5 -45 -20 -45 -23 0 -35 22 -26 45 7 19 30 19 46 0z m435 -36 c0 -15
-7 -25 -17 -27 -13 -3 -18 3 -18 21 0 13 3 27 7 31 13 12 28 -1 28 -25z m360
-100 c6 -26 10 -30 31 -25 19 5 24 3 24 -14 0 -15 -7 -20 -25 -20 -16 0 -25 6
-25 15 0 8 -9 15 -19 15 -19 0 -31 18 -31 46 0 8 9 14 19 14 14 0 21 -9 26
-31z m-155 -11 c0 -19 -17 -42 -22 -32 -17 31 -16 44 2 44 11 0 20 -6 20 -12z
m290 -36 c0 -5 -9 -17 -20 -27 -19 -18 -20 -17 -20 2 0 11 3 23 7 26 9 10 33
9 33 -1z m-283 -24 c-3 -8 -6 -5 -6 6 -1 11 2 17 5 13 3 -3 4 -12 1 -19z
m-122 -28 c3 -11 3 -24 0 -30 -9 -14 -51 -12 -63 3 -18 21 1 38 50 46 4 0 9
-8 13 -19z m117 -5 c14 0 20 -15 7 -19 -22 -7 -105 -16 -90 -9 7 3 22 14 33
25 11 11 24 16 31 11 7 -4 15 -8 19 -8z m212 -28 c8 -21 6 -31 -9 -47 -21 -24
-30 -18 -38 26 -10 54 29 72 47 21z m76 -12 c0 -7 -7 -15 -15 -19 -16 -6 -19
3 -9 28 7 18 24 12 24 -9z m-170 -16 c0 -31 -19 -59 -39 -59 -23 0 -35 36 -15
44 8 3 14 12 14 20 0 15 19 26 33 19 4 -2 7 -13 7 -24z m-217 -15 c10 -10 -12
-44 -28 -44 -9 0 -15 10 -15 25 0 18 5 25 18 25 10 0 22 -3 25 -6z m-94 -88
c-6 -21 -15 -35 -22 -33 -15 5 -13 63 4 83 20 24 30 -5 18 -50z m568 -48 c-3
-22 -4 -21 -11 4 -5 16 -5 36 0 45 7 16 8 15 11 -4 3 -13 3 -33 0 -45z m-87
31 c0 -11 -4 -17 -10 -14 -5 3 -10 13 -10 21 0 8 5 14 10 14 6 0 10 -9 10 -21z
m85 -229 c3 -5 -1 -10 -9 -10 -9 0 -16 5 -16 10 0 6 4 10 9 10 6 0 13 -4 16
-10z"/>
<path d="M18540 10092 c-66 -22 -90 -34 -85 -43 3 -4 -10 -7 -29 -7 -52 0 -71
-9 -83 -42 -13 -34 -46 -41 -62 -13 -14 26 -61 2 -61 -32 0 -14 -7 -28 -15
-31 -24 -10 -65 5 -65 22 0 11 -5 14 -17 9 -33 -12 -287 -83 -363 -100 -41 -9
-88 -26 -104 -37 -20 -14 -30 -17 -35 -9 -4 6 -15 9 -25 5 -15 -6 -15 -8 6
-20 13 -7 30 -16 38 -20 8 -4 20 -14 26 -22 8 -12 13 -10 27 12 22 33 37 33
37 1 0 -19 5 -25 23 -25 12 0 28 -4 36 -9 19 -12 5 -64 -25 -90 -27 -24 -29
-54 -3 -59 12 -2 18 7 23 31 5 29 12 36 45 45 49 15 47 16 71 -10 l22 -23 27
33 c34 40 53 41 68 2 15 -39 47 -40 61 -2 6 15 13 39 16 55 4 15 13 27 21 27
18 0 35 31 35 65 0 38 28 87 48 83 9 -2 18 -13 20 -26 2 -12 10 -22 18 -22 24
0 124 61 124 76 0 23 68 44 154 48 101 5 145 24 138 62 -3 15 -14 29 -28 34
-13 5 -24 16 -24 24 0 23 -12 25 -60 8z m10 -42 c11 -7 7 -10 -18 -10 -20 0
-31 4 -27 10 8 13 26 13 45 0z m-269 -106 c11 -14 10 -18 -6 -30 -26 -19 -39
-13 -43 19 -3 21 1 27 16 27 11 0 26 -7 33 -16z m-204 -120 c-3 -3 -12 -4 -19
-1 -8 3 -5 6 6 6 11 1 17 -2 13 -5z m-233 -90 c8 -22 8 -24 -8 -24 -15 0 -28
24 -19 34 11 10 21 7 27 -10z"/>
<path d="M18800 10040 c0 -19 3 -21 12 -12 9 9 9 15 0 24 -9 9 -12 7 -12 -12z"/>
<path d="M6935 9930 c-3 -5 -1 -10 4 -10 6 0 11 5 11 10 0 6 -2 10 -4 10 -3 0
-8 -4 -11 -10z"/>
<path d="M16511 9886 c-1 -31 2 -37 15 -32 9 3 24 6 35 6 17 0 18 3 9 20 -6
11 -19 20 -30 20 -10 0 -21 6 -23 13 -3 6 -6 -5 -6 -27z"/>
<path d="M6535 9889 c-4 -6 -5 -13 -2 -16 7 -7 27 6 27 18 0 12 -17 12 -25 -2z"/>
<path d="M18666 9885 c4 -8 8 -15 10 -15 2 0 4 7 4 15 0 8 -4 15 -10 15 -5 0
-7 -7 -4 -15z"/>
<path d="M16595 9850 c4 -6 11 -8 16 -5 14 9 11 15 -7 15 -8 0 -12 -5 -9 -10z"/>
<path d="M16715 9840 c3 -5 13 -10 21 -10 8 0 12 5 9 10 -3 6 -13 10 -21 10
-8 0 -12 -4 -9 -10z"/>
<path d="M16510 9804 c0 -8 5 -12 10 -9 6 3 10 10 10 16 0 5 -4 9 -10 9 -5 0
-10 -7 -10 -16z"/>
<path d="M6400 9780 c0 -18 4 -29 10 -25 6 3 10 15 10 25 0 10 -4 22 -10 25
-6 4 -10 -7 -10 -25z"/>
<path d="M18398 9800 c12 -5 22 -18 22 -29 0 -22 15 -35 29 -26 6 3 3 18 -7
35 -12 21 -24 30 -42 29 -25 0 -25 0 -2 -9z"/>
<path d="M18516 9761 c-4 -7 -5 -15 -2 -18 9 -9 19 4 14 18 -4 11 -6 11 -12 0z"/>
<path d="M18312 9710 c-15 -24 -16 -40 -2 -40 6 0 10 7 10 15 0 8 7 15 16 15
9 0 14 5 12 12 -7 20 -23 19 -36 -2z"/>
<path d="M18360 9700 c0 -5 9 -10 20 -10 11 0 20 5 20 10 0 6 -9 10 -20 10
-11 0 -20 -4 -20 -10z"/>
<path d="M18162 9673 c4 -21 19 -26 38 -13 13 9 13 11 0 20 -23 15 -42 12 -38
-7z"/>
<path d="M18395 9621 c-3 -6 4 -8 16 -6 30 6 37 15 11 15 -11 0 -23 -4 -27 -9z"/>
<path d="M18131 9612 c-6 -2 -11 -13 -11 -24 0 -11 -11 -33 -25 -50 -52 -62
-12 -82 42 -21 18 20 33 42 33 49 0 6 7 17 15 24 27 23 -8 37 -54 22z"/>
<path d="M17890 9600 c0 -5 5 -10 11 -10 5 0 7 5 4 10 -3 6 -8 10 -11 10 -2 0
-4 -4 -4 -10z"/>
<path d="M17790 9560 c0 -5 -13 -10 -30 -10 -20 0 -30 -5 -30 -15 0 -17 25
-20 35 -5 3 6 19 10 35 10 22 0 28 4 24 15 -7 17 -34 21 -34 5z"/>
<path d="M18400 9534 c-16 -8 -19 -14 -9 -14 8 0 24 7 35 15 24 18 7 18 -26
-1z"/>
<path d="M17845 9520 c3 -5 8 -10 11 -10 2 0 4 5 4 10 0 6 -5 10 -11 10 -5 0
-7 -4 -4 -10z"/>
<path d="M18180 9515 c0 -8 7 -15 15 -15 8 0 15 4 15 9 0 5 -7 11 -15 15 -9 3
-15 0 -15 -9z"/>
<path d="M17750 9471 c0 -12 13 -20 51 -31 23 -7 31 -5 36 6 7 19 6 20 -44 29
-28 4 -43 3 -43 -4z"/>
<path d="M17947 9457 c-3 -7 -3 -25 0 -39 5 -25 -18 -60 -46 -69 -6 -3 -8 -18
-5 -40 l6 -37 48 20 c47 20 48 20 29 39 -25 25 -24 46 4 60 12 7 23 12 25 11
9 -7 22 1 22 13 0 9 -9 15 -24 15 -16 0 -27 7 -31 20 -7 23 -21 26 -28 7z"/>
<path d="M18135 9443 c-3 -9 0 -20 7 -25 20 -12 28 -9 28 11 0 24 -26 35 -35
14z"/>
<path d="M18240 9440 c0 -5 7 -7 15 -4 8 4 15 8 15 10 0 2 -7 4 -15 4 -8 0
-15 -4 -15 -10z"/>
<path d="M17898 9423 c7 -3 16 -2 19 1 4 3 -2 6 -13 5 -11 0 -14 -3 -6 -6z"/>
<path d="M18074 9405 c-7 -17 4 -38 15 -30 5 2 11 14 14 25 6 23 -20 29 -29 5z"/>
<path d="M18040 9356 c0 -22 3 -27 11 -19 8 8 8 16 0 30 -9 16 -10 14 -11 -11z"/>
<path d="M17790 9240 c-9 -6 -10 -10 -3 -10 6 0 15 5 18 10 8 12 4 12 -15 0z"/>
<path d="M15908 9148 c-9 -7 -19 -26 -22 -43 -6 -27 -2 -33 37 -57 56 -36 65
-35 75 5 8 30 7 32 -17 35 -34 5 -63 32 -58 54 6 21 5 22 -15 6z"/>
<path d="M15996 9132 c-3 -6 -1 -14 5 -17 15 -10 25 3 12 16 -7 7 -13 7 -17 1z"/>
<path d="M15483 8948 c1 -16 5 -28 9 -28 10 0 9 9 -2 35 -8 17 -8 16 -7 -7z"/>
<path d="M16164 8238 c3 -11 0 -18 -8 -18 -18 0 -47 -34 -48 -56 -1 -11 2 -28
5 -40 6 -17 3 -20 -15 -20 -21 1 -23 -3 -20 -37 3 -41 -13 -71 -34 -63 -7 3
-19 -7 -27 -22 -8 -15 -23 -43 -34 -63 -12 -20 -27 -47 -35 -60 -7 -13 -15
-26 -18 -29 -8 -8 -30 -49 -30 -56 0 -14 34 23 86 92 37 50 52 78 48 90 -4 14
-3 15 4 6 11 -16 26 4 117 150 58 92 64 108 40 108 -7 0 -19 8 -25 18 -11 16
-11 16 -6 0z"/>
<path d="M15711 8141 c-39 -36 -39 -51 -1 -51 31 0 38 -17 24 -54 -5 -13 -10
-14 -27 -4 -35 19 -49 18 -78 -6 -19 -16 -24 -27 -17 -34 5 -5 8 -20 6 -33 -4
-29 -38 -39 -38 -12 0 10 -14 -9 -30 -41 -22 -45 -27 -63 -19 -73 13 -15 -13
-63 -35 -63 -7 0 -23 -24 -37 -52 -84 -184 -271 -481 -436 -697 -35 -45 -63
-85 -60 -87 15 -16 325 293 438 436 154 196 319 451 319 492 0 10 4 18 10 18
15 0 35 43 21 48 -6 2 -11 10 -11 18 0 7 6 11 14 8 8 -3 22 7 33 23 21 31 56
104 51 108 -2 1 -24 20 -49 43 l-47 42 -31 -29z"/>
<path d="M10332 7748 c5 -15 28 -23 28 -10 0 5 -7 13 -16 16 -10 4 -14 1 -12
-6z"/>
<path d="M10385 7611 c-10 -17 15 -45 29 -31 7 7 5 15 -6 26 -11 11 -18 13
-23 5z"/>
<path d="M10262 7558 c-14 -14 -16 -48 -3 -48 17 0 33 29 24 45 -7 12 -12 12
-21 3z"/>
<path d="M10338 7529 c3 -19 0 -34 -8 -39 -7 -4 -9 -13 -5 -20 5 -8 14 -5 31
11 29 27 30 40 6 62 -26 24 -29 21 -24 -14z"/>
<path d="M10515 7480 c-8 -12 20 -24 35 -15 6 3 8 11 5 16 -8 12 -32 12 -40
-1z"/>
<path d="M10140 7316 c0 -9 7 -16 16 -16 9 0 14 5 12 12 -6 18 -28 21 -28 4z"/>
<path d="M10084 7226 c-18 -14 -18 -15 6 -24 32 -12 43 -6 30 19 -13 23 -11
23 -36 5z"/>
<path d="M9845 7120 c3 -5 8 -10 11 -10 2 0 4 5 4 10 0 6 -5 10 -11 10 -5 0
-7 -4 -4 -10z"/>
<path d="M10460 7100 c0 -15 5 -20 18 -18 9 2 17 10 17 18 0 8 -8 16 -17 18
-13 2 -18 -3 -18 -18z"/>
<path d="M9979 6982 c12 -23 40 -47 46 -40 3 3 -4 17 -16 31 -24 31 -45 37
-30 9z"/>
<path d="M13490 6930 c1 -15 19 -32 29 -26 18 12 12 32 -9 32 -11 0 -20 -3
-20 -6z"/>
<path d="M11296 6911 c-3 -5 1 -12 10 -15 20 -8 29 -1 19 13 -8 13 -22 14 -29
2z"/>
<path d="M14978 5035 c-82 -17 -93 -23 -93 -54 0 -13 -8 -29 -18 -35 -15 -9
-22 -7 -36 11 l-18 22 -44 -28 c-69 -44 -137 -125 -175 -206 -143 -310 37
-654 384 -731 86 -19 341 -15 429 6 l53 13 39 101 c21 56 38 102 37 103 -1 2
-34 -11 -73 -27 -217 -91 -395 -75 -502 47 -60 67 -83 138 -89 263 -9 221 62
343 216 372 74 14 172 -1 251 -38 29 -13 55 -24 58 -24 10 0 -5 192 -16 203
-16 16 -325 19 -403 2z"/>
<path d="M5534 5033 l-370 -3 -27 -104 c-15 -57 -27 -107 -27 -110 0 -4 21 4
48 18 56 28 128 40 183 31 l39 -7 0 -362 c0 -377 -3 -409 -43 -453 l-20 -23
208 0 c199 0 207 1 192 18 -45 49 -47 73 -47 456 0 411 -8 376 86 376 60 0
111 -17 134 -44 13 -16 16 -8 37 81 29 126 29 134 1 131 -13 -2 -190 -4 -394
-5z m63 -814 c14 -14 6 -39 -12 -39 -18 0 -28 17 -21 35 6 18 18 19 33 4z"/>
<path d="M16942 5033 l-302 -3 21 -29 c12 -16 25 -49 30 -73 13 -66 11 -775
-2 -823 -6 -22 -20 -50 -32 -63 l-21 -22 349 2 349 3 26 106 27 107 -44 -28
c-74 -47 -182 -58 -320 -34 l-33 6 0 149 0 149 79 0 c64 0 83 -4 105 -21 l26
-20 0 98 0 98 -105 -3 -105 -3 0 126 0 127 99 -4 c84 -2 104 -6 130 -25 17
-13 33 -23 36 -23 3 0 5 47 5 105 0 58 -3 104 -7 103 -5 -2 -144 -4 -311 -5z"/>
<path d="M19104 5025 c-17 -50 -50 -205 -44 -205 4 0 27 9 51 19 55 24 128 35
174 27 l35 -7 0 -370 c0 -386 -2 -410 -44 -452 -16 -16 -6 -17 188 -17 l206 0
-27 42 -28 42 -3 376 -3 377 23 7 c36 9 114 7 145 -5 15 -6 38 -19 49 -30 l21
-20 12 58 c6 32 18 84 26 117 l14 58 -52 -8 c-29 -4 -67 -8 -84 -8 -21 0 -33
-4 -33 -13 0 -18 -27 -17 -37 2 -7 12 -56 15 -297 17 -186 2 -290 -1 -292 -7z
m646 -70 c0 -8 -4 -15 -9 -15 -13 0 -22 16 -14 24 11 11 23 6 23 -9z m-156
-374 c3 -5 -1 -11 -9 -15 -15 -6 -29 7 -18 18 9 9 21 8 27 -3z m-34 -180 c0
-6 -4 -13 -10 -16 -5 -3 -10 1 -10 9 0 9 5 16 10 16 6 0 10 -4 10 -9z"/>
<path d="M6042 4998 l23 -33 0 -440 0 -440 -23 -32 -23 -33 202 0 202 0 -21
23 c-35 37 -42 80 -42 264 l0 173 140 0 140 0 0 -183 c0 -173 -1 -186 -24
-230 l-23 -47 192 0 192 0 -23 47 -24 46 0 412 0 412 25 47 24 46 -200 0 -201
0 25 -30 c31 -37 39 -94 35 -250 l-3 -115 -135 0 -135 0 -3 125 c-4 157 3 202
34 240 l26 30 -202 0 -201 0 23 -32z m139 -73 c-1 -15 -24 -12 -29 3 -3 9 2
13 12 10 10 -1 17 -7 17 -13z m119 -115 c0 -27 -19 -35 -38 -17 -12 13 -13 19
-3 31 16 19 41 10 41 -14z m545 -49 c7 -12 -12 -24 -25 -16 -11 7 -4 25 10 25
5 0 11 -4 15 -9z m-500 -111 c3 -5 -1 -10 -9 -10 -9 0 -16 5 -16 10 0 6 4 10
9 10 6 0 13 -4 16 -10z m5 -390 c0 -5 -4 -10 -10 -10 -5 0 -10 5 -10 10 0 6 5
10 10 10 6 0 10 -4 10 -10z m-203 -101 c14 -14 6 -39 -12 -39 -18 0 -28 17
-21 35 6 18 18 19 33 4z"/>
<path d="M7384 4999 c14 -17 26 -41 26 -54 0 -23 -241 -714 -281 -805 -11 -25
-33 -62 -50 -82 l-30 -38 156 0 157 0 -26 31 c-34 40 -33 72 7 184 l32 90 160
0 160 0 32 -90 c40 -112 41 -144 7 -184 l-26 -31 216 0 217 0 -41 54 c-32 43
-72 136 -196 462 -86 225 -163 428 -171 452 l-15 42 -108 0 c-87 0 -109 -3
-114 -15 -3 -8 -12 -15 -21 -15 -9 0 -18 7 -21 15 -4 10 -20 15 -51 15 l-45 0
26 -31z m286 -14 c0 -8 -4 -15 -10 -15 -5 0 -10 7 -10 15 0 8 5 15 10 15 6 0
10 -7 10 -15z m-130 -41 c0 -17 -26 -19 -36 -3 -7 12 15 31 28 23 4 -3 8 -12
8 -20z m49 -327 c28 -76 51 -141 51 -143 0 -2 -49 -4 -108 -4 l-109 0 51 149
c28 83 54 147 58 143 4 -4 30 -69 57 -145z"/>
<path d="M8205 4980 c19 -28 37 -69 40 -93 3 -23 5 -206 3 -407 l-3 -365 -27
-47 -27 -48 146 0 c140 0 145 1 130 18 -44 49 -50 85 -52 355 -2 141 0 257 5
257 4 0 83 -98 176 -217 181 -234 248 -307 328 -357 58 -36 135 -70 184 -81
l32 -7 0 99 c4 763 6 828 23 868 10 21 25 47 34 57 16 18 11 18 -130 17 -133
-2 -146 -4 -133 -18 47 -54 50 -75 53 -338 1 -139 -1 -255 -6 -257 -5 -3 -118
134 -251 304 l-242 310 -158 0 -159 0 34 -50z m75 -10 c0 -5 -2 -10 -4 -10 -3
0 -8 5 -11 10 -3 6 -1 10 4 10 6 0 11 -4 11 -10z m523 -617 c4 -3 2 -12 -4
-20 -9 -10 -15 -10 -25 -2 -8 6 -11 15 -8 20 6 11 28 12 37 2z"/>
<path d="M9361 5001 c12 -16 25 -49 30 -73 11 -58 11 -773 0 -821 -5 -22 -19
-50 -32 -63 l-22 -24 202 0 202 0 -23 31 c-22 29 -23 41 -26 230 l-3 199 138
0 138 0 2 -112 c4 -181 -6 -274 -33 -314 l-23 -34 200 0 200 0 -22 30 c-33 44
-38 101 -38 480 0 372 4 425 38 471 l22 29 -201 0 -201 0 22 -29 c25 -34 36
-117 35 -266 l-1 -100 -135 0 -135 0 0 165 c0 157 1 167 23 198 l23 32 -201 0
-201 0 22 -29z m137 -148 l-22 -23 -23 22 -23 22 22 23 22 23 23 -22 23 -22
-22 -23z m532 -318 c0 -8 -4 -15 -10 -15 -5 0 -10 7 -10 15 0 8 5 15 10 15 6
0 10 -7 10 -15z m-250 -15 c0 -5 -2 -10 -4 -10 -3 0 -8 5 -11 10 -3 6 -1 10 4
10 6 0 11 -4 11 -10z m-105 -90 c3 -5 -1 -10 -10 -10 -9 0 -13 5 -10 10 3 6 8
10 10 10 2 0 7 -4 10 -10z"/>
<path d="M10389 4978 c17 -29 87 -206 156 -392 69 -187 135 -361 147 -388 27
-64 93 -122 184 -164 95 -43 122 -50 129 -33 283 810 349 997 353 1012 4 16
-7 17 -127 17 l-130 0 24 -36 c15 -23 25 -51 25 -73 0 -28 -101 -342 -186
-580 -2 -8 -7 -12 -10 -9 -10 11 -224 622 -230 659 l-7 39 -178 0 -179 0 29
-52z m371 -448 c0 -5 -4 -10 -10 -10 -5 0 -10 5 -10 10 0 6 5 10 10 10 6 0 10
-4 10 -10z"/>
<path d="M11446 5022 c6 -4 20 -23 30 -42 18 -32 19 -65 22 -440 1 -244 -2
-419 -8 -439 -5 -19 -19 -45 -32 -58 l-21 -23 202 0 202 0 -23 31 -23 31 0
441 0 442 23 33 23 32 -203 0 c-112 0 -198 -4 -192 -8z m128 -388 c6 -16 -9
-44 -25 -44 -4 0 -15 7 -24 16 -12 12 -13 19 -4 30 16 19 45 18 53 -2z"/>
<path d="M11984 4985 c53 -69 57 -109 54 -501 l-3 -349 -27 -57 -27 -58 139 0
139 0 -27 48 -27 47 -3 268 c-2 147 0 267 5 266 4 0 85 -99 178 -220 175 -226
260 -317 341 -365 49 -29 165 -74 189 -74 12 0 15 73 17 473 l3 472 28 48 28
47 -39 0 c-23 0 -45 -6 -52 -15 -16 -19 -51 -19 -76 0 -10 8 -40 15 -66 15
l-47 0 27 -47 27 -48 3 -270 c2 -259 2 -269 -15 -248 -10 12 -121 155 -248
317 l-230 295 -162 1 -163 0 34 -45z m286 -303 c0 -13 -12 -22 -22 -16 -10 6
-1 24 13 24 5 0 9 -4 9 -8z m375 -197 c0 -28 -29 -25 -33 3 -3 19 0 23 15 20
10 -2 18 -12 18 -23z m-475 -355 c0 -5 -4 -10 -10 -10 -5 0 -10 5 -10 10 0 6
5 10 10 10 6 0 10 -4 10 -10z"/>
<path d="M13151 5001 c12 -17 26 -52 30 -78 10 -64 10 -746 -1 -801 -4 -24
-17 -57 -29 -73 l-22 -29 201 0 201 0 -22 29 c-29 40 -36 91 -35 271 l1 155
138 3 137 3 0 -194 c0 -190 -1 -195 -25 -231 l-24 -36 200 0 201 0 -25 30
c-36 42 -39 93 -35 531 l3 376 28 36 28 37 -201 0 -201 0 23 -32 c21 -31 23
-44 26 -201 l4 -168 -139 3 -138 3 -1 110 c-1 163 6 212 32 251 l23 34 -200 0
-200 0 22 -29z m626 -43 c-3 -8 -6 -5 -6 6 -1 11 2 17 5 13 3 -3 4 -12 1 -19z
m138 -123 c0 -11 -8 -21 -17 -23 -14 -3 -18 3 -18 23 0 20 4 26 18 23 9 -2 17
-12 17 -23z m-58 -291 c3 -9 0 -20 -8 -25 -23 -14 -29 -11 -29 16 0 28 27 35
37 9z m-499 -411 c2 -8 -5 -13 -17 -13 -12 0 -21 6 -21 16 0 18 31 15 38 -3z"/>
<path d="M15629 5009 c12 -13 26 -39 31 -58 6 -21 10 -205 10 -441 l0 -405
-25 -42 -24 -43 196 0 c193 0 196 0 179 19 -36 40 -45 91 -46 259 0 89 3 162
8 162 4 0 31 -48 61 -107 106 -217 180 -311 256 -332 46 -12 114 -14 232 -4
l83 6 -63 66 c-66 71 -132 162 -233 325 l-63 99 62 37 c117 70 165 172 133
282 -20 71 -79 138 -148 169 -52 23 -61 24 -361 27 l-309 3 21 -22z m305 -24
c3 -9 -1 -18 -10 -22 -19 -7 -39 11 -30 26 10 16 33 13 40 -4z m132 -124 c56
-34 81 -134 53 -208 -20 -54 -78 -102 -141 -117 l-28 -6 0 175 0 175 43 0 c23
0 55 -8 73 -19z m164 -116 c0 -8 -4 -15 -9 -15 -13 0 -22 16 -14 24 11 11 23
6 23 -9z m-45 -305 l28 -29 -24 -20 c-29 -25 -38 -25 -67 -5 -28 19 -28 32 0
61 27 29 29 29 63 -7z m-302 -347 c-3 -7 -9 -13 -13 -13 -16 0 -22 21 -9 36
14 17 31 0 22 -23z"/>
<path d="M17478 5008 c12 -14 27 -40 32 -59 6 -19 10 -204 10 -435 l0 -401
-24 -46 -23 -47 277 0 c367 0 435 16 553 129 93 89 143 197 154 332 19 241
-106 441 -325 521 -52 20 -83 22 -367 26 l-310 4 23 -24z m702 -58 c0 -24 -26
-38 -42 -22 -16 16 -2 42 22 42 13 0 20 -7 20 -20z m-185 -89 c118 -53 184
-231 157 -422 -11 -78 -45 -163 -80 -203 -43 -47 -137 -74 -217 -62 l-45 7 0
344 c0 389 -9 352 90 354 34 0 71 -6 95 -18z m-45 -746 c0 -8 -9 -15 -20 -15
-11 0 -20 7 -20 15 0 8 9 15 20 15 11 0 20 -7 20 -15z"/>
<path d="M18600 5008 c11 -12 25 -39 30 -60 14 -51 8 -840 -7 -890 l-11 -38
190 0 c179 0 188 1 172 17 -42 42 -44 64 -44 487 0 419 2 440 42 484 l21 22
-207 0 -207 0 21 -22z"/>
</g>
</svg>
