<?xml version="1.0" standalone="no"?>
<!DOCTYPE svg PUBLIC "-//W3C//DTD SVG 20010904//EN"
 "http://www.w3.org/TR/2001/REC-SVG-20010904/DTD/svg10.dtd">
<svg version="1.0" xmlns="http://www.w3.org/2000/svg"
 width="2000.000000pt" height="1200.000000pt" viewBox="0 0 2000.000000 1200.000000"
 preserveAspectRatio="xMidYMid meet">

<g transform="translate(0.000000,1200.000000) scale(0.100000,-0.100000)"
fill="#000000" stroke="none">
<path d="M5810 7395 c-426 -23 -797 -59 -1100 -105 -494 -76 -834 -150 -1119
-245 -248 -83 -407 -179 -399 -242 5 -46 27 -49 117 -14 112 42 202 55 341 48
401 -21 735 -198 850 -452 76 -167 65 -314 -55 -765 -26 -95 -37 -132 -115
-377 -48 -153 -49 -177 -4 -181 27 -3 35 4 86 75 30 43 102 152 158 243 246
397 223 364 233 338 18 -46 24 -53 52 -56 42 -5 52 11 30 51 l-18 34 66 134
c60 123 88 176 189 359 82 150 139 272 136 293 -4 31 -34 33 -62 2 -23 -24
-121 -183 -513 -831 -217 -357 -253 -413 -253 -393 0 9 16 66 35 125 91 276
155 579 155 724 -1 213 -91 393 -259 514 -172 123 -422 207 -691 232 -41 3
-84 10 -95 14 -83 32 618 207 1155 289 560 85 1127 129 1661 131 235 0 375
-12 469 -41 85 -27 120 -49 173 -111 31 -36 49 -49 61 -45 25 10 19 51 -17
103 -41 60 -142 115 -257 140 -101 22 -670 27 -1010 9z"/>
<path d="M10450 7289 c-36 -4 -103 -13 -150 -19 -145 -19 -396 -69 -482 -96
-25 -8 -49 -22 -52 -31 -8 -19 11 -43 34 -43 44 0 34 -23 -103 -220 -187 -269
-681 -939 -852 -1155 -17 -22 -102 -128 -187 -236 l-156 -196 -93 -6 c-51 -4
-94 -5 -96 -3 -9 9 423 1173 536 1445 59 139 41 171 -93 171 -177 0 -531 -82
-561 -130 -13 -21 7 -49 46 -64 76 -31 105 -18 84 36 -5 13 2 19 32 27 81 21
267 53 387 66 l59 7 -6 -29 c-3 -15 -47 -134 -97 -263 -155 -395 -356 -922
-406 -1065 -7 -22 -27 -76 -42 -120 l-29 -80 -134 -7 c-74 -3 -296 -11 -494
-17 -745 -24 -1524 -73 -1985 -127 -403 -46 -489 -67 -461 -112 14 -23 68 -22
307 7 519 63 976 95 1919 136 530 23 815 30 815 22 0 -2 -9 -30 -19 -63 -33
-104 -43 -158 -33 -185 13 -34 37 -52 59 -45 32 10 137 106 228 208 l87 96 71
6 c114 9 1362 35 2177 46 1174 15 1585 15 1677 2 60 -8 101 -8 155 0 48 7 412
12 1058 14 1129 4 1199 8 1208 71 5 35 -42 51 -198 68 -153 17 -812 26 -862
12 -18 -5 -30 -16 -34 -32 l-6 -25 -357 1 c-270 0 -350 3 -331 11 357 160 573
277 817 443 l93 63 -21 -39 c-26 -52 -18 -79 23 -79 21 0 53 18 111 61 45 34
96 67 112 73 18 7 79 10 151 8 l122 -3 -11 -28 c-14 -39 1 -89 36 -115 24 -18
42 -21 115 -21 95 1 138 13 250 69 l68 34 -4 -27 c-2 -17 4 -36 16 -51 44 -54
160 -12 287 105 74 68 95 78 95 45 0 -39 30 -81 73 -101 77 -34 161 -19 280
50 l67 40 0 -35 c0 -25 8 -42 28 -61 25 -23 32 -25 92 -20 85 7 204 46 311
100 l86 44 -5 -47 c-12 -130 103 -196 241 -138 65 27 190 104 268 163 43 34
59 53 59 71 0 15 -6 24 -15 24 -8 0 -59 -30 -113 -67 -229 -157 -362 -175
-362 -50 0 53 8 65 102 144 46 39 123 107 173 151 49 45 101 84 117 87 17 4
44 -1 74 -14 46 -21 48 -21 78 -3 34 20 45 52 23 71 -8 6 -38 14 -66 18 -28 3
-51 9 -51 13 0 4 10 15 21 26 38 34 161 214 201 292 44 89 49 136 16 177 -18
23 -26 27 -60 22 -102 -14 -263 -178 -453 -464 -51 -77 -52 -78 -133 -88 l-52
-7 12 26 c8 19 8 30 1 37 -14 14 -88 -9 -161 -52 -46 -26 -53 -34 -50 -57 3
-26 5 -27 71 -30 37 -2 93 2 123 7 31 6 60 8 65 6 4 -3 -20 -60 -54 -127 l-62
-121 -110 -53 c-143 -68 -230 -96 -292 -92 -37 2 -49 7 -51 21 -8 38 9 64 58
95 44 28 51 36 48 59 -2 23 -8 29 -36 31 -27 3 -41 -5 -81 -40 -51 -46 -177
-122 -239 -144 -62 -22 -100 -18 -133 15 -54 54 -39 109 59 220 230 258 426
513 477 622 29 63 31 82 9 100 -13 11 -23 9 -59 -10 -61 -32 -243 -223 -352
-368 -94 -125 -213 -316 -213 -341 0 -31 -223 -238 -298 -276 -30 -15 -33 -15
-39 -1 -8 23 77 107 147 144 36 19 60 39 63 53 7 23 -8 58 -24 58 -20 0 -89
-41 -150 -90 -176 -141 -398 -227 -493 -190 -56 21 -18 58 82 79 69 14 123 43
156 81 33 40 34 75 1 96 -38 25 -101 12 -206 -43 l-92 -48 -161 0 c-157 0
-162 -1 -210 -28 -27 -15 -51 -26 -53 -24 -2 2 4 21 13 42 14 34 14 39 0 53
-14 14 -20 13 -58 -16 -335 -248 -755 -477 -1108 -602 l-113 -40 -259 0 c-254
0 -260 0 -306 24 -26 13 -64 42 -84 63 -216 224 19 615 637 1062 217 157 402
267 655 390 270 131 428 181 568 181 79 0 85 -2 113 -29 35 -36 37 -69 8 -145
-42 -113 -169 -270 -343 -424 -317 -282 -719 -528 -743 -456 -8 25 109 175
237 304 189 189 394 340 464 340 11 0 27 -7 36 -15 24 -22 50 -9 50 25 0 68
-81 73 -203 12 -204 -102 -519 -398 -621 -583 -62 -113 -44 -169 55 -169 91 0
350 147 593 335 101 78 289 251 353 323 181 205 242 349 197 463 -65 161 -364
120 -835 -117 -611 -305 -1150 -744 -1314 -1069 -66 -130 -80 -227 -46 -334
19 -62 78 -153 109 -167 30 -14 -117 -21 -455 -23 -354 -1 -2670 -46 -2933
-57 -138 -5 -163 -4 -154 7 6 8 44 55 85 105 158 195 521 673 779 1028 80 109
185 253 234 320 126 173 206 297 213 328 3 15 11 33 19 39 25 21 274 66 524
94 219 25 577 16 616 -16 9 -7 6 -20 -10 -49 -25 -46 -14 -67 29 -56 34 9 66
62 63 105 -4 43 -35 67 -113 86 -68 16 -471 19 -585 4z m6527 -515 c3 -9 -4
-37 -17 -63 -37 -77 -206 -309 -256 -352 -25 -22 -134 -33 -134 -14 0 26 177
260 265 352 91 94 128 114 142 77z m-1147 -137 c0 -11 -263 -346 -272 -347
-11 0 14 40 76 125 114 153 196 247 196 222z m760 -387 c0 -10 -171 -160 -183
-160 -9 0 -9 0 49 92 39 61 47 67 81 71 21 2 41 4 46 5 4 1 7 -2 7 -8z m-1855
-250 c-11 -17 -65 -41 -83 -37 -12 3 -2 11 28 25 50 24 64 27 55 12z m-6363
-858 c-64 -73 -152 -156 -159 -149 -5 5 50 178 63 199 3 4 37 8 76 8 l70 0
-50 -58z"/>
<path d="M5798 6813 c-101 -97 -234 -286 -496 -705 -194 -310 -204 -329 -200
-376 3 -32 7 -37 32 -40 31 -4 93 34 256 157 52 39 100 71 107 71 10 0 12 -14
7 -55 -8 -65 6 -100 42 -109 30 -8 123 23 225 75 l79 39 0 -38 c0 -49 24 -72
73 -72 51 0 110 30 187 95 35 30 67 55 70 55 3 0 12 -16 19 -36 15 -43 62 -74
111 -74 41 0 140 27 228 63 34 14 62 22 62 17 0 -5 -4 -12 -10 -15 -5 -3 -10
-24 -10 -45 0 -29 5 -42 20 -50 25 -13 43 -4 191 95 61 41 117 75 125 75 11 0
12 -13 7 -60 -5 -50 -3 -64 12 -80 33 -36 110 -22 277 50 49 22 88 36 86 32
-67 -128 -75 -185 -26 -190 36 -4 62 11 218 127 147 110 175 122 159 69 -17
-60 -11 -95 18 -118 40 -31 70 -22 278 79 175 85 224 118 210 140 -12 20 -39
11 -130 -39 -92 -52 -250 -120 -278 -120 -24 0 -26 10 -14 71 13 75 5 106 -32
114 -37 8 -83 -15 -223 -112 -60 -41 -108 -69 -108 -63 0 18 77 126 107 150
216 169 409 389 506 577 59 114 80 176 81 236 0 51 -12 67 -49 67 -31 0 -168
-150 -268 -293 -78 -112 -278 -421 -349 -541 -23 -38 -41 -52 -115 -89 -148
-74 -272 -113 -287 -89 -2 4 1 35 8 69 15 72 7 93 -35 93 -36 0 -87 -25 -197
-96 -111 -72 -127 -71 -72 4 33 46 39 82 14 82 -8 0 -57 -20 -107 -44 -109
-52 -238 -96 -279 -96 -66 0 -89 44 -67 130 16 63 4 80 -57 80 -62 0 -140 -30
-269 -102 -185 -104 -326 -162 -345 -142 -4 5 -4 34 2 67 13 76 6 104 -31 112
-37 8 -83 -15 -223 -112 -60 -40 -108 -69 -108 -63 0 29 81 128 157 192 241
201 429 442 508 652 31 83 34 161 6 176 -32 16 -40 13 -103 -47z m42 -86 c0
-49 -58 -161 -143 -272 -78 -104 -276 -320 -284 -311 -6 6 282 443 360 548 28
37 54 68 59 68 4 0 8 -15 8 -33z m2140 -14 c-4 -21 -13 -51 -19 -67 -21 -52
-116 -189 -198 -286 -84 -98 -213 -230 -213 -217 0 11 374 568 400 595 28 30
39 21 30 -25z m-1860 -763 c-65 -57 -159 -120 -181 -120 -25 0 -24 25 2 61 24
34 151 99 194 99 l30 0 -45 -40z"/>
<path d="M11150 6863 c-68 -25 -258 -279 -521 -698 l-106 -170 -69 -37 c-133
-72 -286 -123 -306 -103 -3 3 0 34 8 67 15 73 6 98 -34 98 -37 -1 -98 -30
-198 -95 -113 -74 -129 -73 -74 3 32 44 39 82 16 82 -7 0 -51 -19 -97 -43
-139 -70 -247 -109 -321 -115 -65 -4 -67 -4 -73 21 -9 34 7 60 57 94 53 36 66
56 49 77 -51 61 -181 -59 -181 -168 0 -52 44 -96 95 -96 60 0 174 30 268 70
68 29 87 34 81 22 -18 -43 -16 -79 7 -95 27 -19 40 -14 169 73 167 112 164
111 155 35 -10 -73 9 -105 61 -105 40 0 154 36 249 79 36 17 65 28 65 27 0 -2
-14 -30 -31 -64 -48 -96 -34 -145 36 -128 13 3 91 55 174 116 146 106 191 130
177 93 -4 -9 -10 -36 -13 -59 -5 -37 -2 -46 21 -69 38 -38 67 -31 289 78 177
86 217 113 202 137 -11 18 -36 10 -133 -43 -95 -53 -247 -117 -276 -117 -23 0
-24 10 -11 75 14 69 5 102 -32 111 -34 9 -70 -9 -209 -103 -68 -46 -124 -79
-124 -74 0 27 89 136 157 192 263 216 474 500 528 707 19 72 19 97 -1 116 -16
16 -28 18 -54 9z m-25 -175 c-30 -94 -91 -187 -216 -333 -89 -104 -204 -218
-196 -193 9 26 342 522 378 563 43 49 57 34 34 -37z"/>
<path d="M9543 6195 c-7 -19 24 -55 47 -55 22 0 30 19 19 48 -10 26 -56 31
-66 7z"/>
<path d="M15990 6185 c0 -26 32 -50 56 -41 17 7 18 38 2 54 -7 7 -22 12 -35
12 -18 0 -23 -6 -23 -25z"/>
</g>
</svg>
