<?xml version="1.0" standalone="no"?>
<!DOCTYPE svg PUBLIC "-//W3C//DTD SVG 20010904//EN"
 "http://www.w3.org/TR/2001/REC-SVG-20010904/DTD/svg10.dtd">
<svg version="1.0" xmlns="http://www.w3.org/2000/svg"
 width="2500.000000pt" height="2000.000000pt" viewBox="0 0 2500.000000 2000.000000"
 preserveAspectRatio="xMidYMid meet">

<g transform="translate(0.000000,2000.000000) scale(0.100000,-0.100000)"
fill="#000000" stroke="none">
<path d="M0 10000 l0 -10000 12500 0 12500 0 0 10000 0 10000 -12500 0 -12500
0 0 -10000z m12561 4798 c52 -15 113 -68 138 -121 52 -108 2 -251 -106 -300
-29 -13 -28 -19 1 -164 53 -259 142 -422 268 -490 52 -28 179 -25 238 6 72 37
127 88 180 164 48 68 60 97 40 97 -21 0 -85 68 -106 115 -29 61 -30 116 -3
175 41 90 108 134 204 134 96 0 163 -44 204 -134 25 -56 26 -122 2 -175 -24
-53 -90 -111 -140 -125 -48 -13 -49 -15 -20 -131 24 -97 74 -208 118 -261 38
-44 122 -88 171 -88 103 0 246 129 400 359 52 77 61 97 51 110 -29 40 -44 90
-44 146 -1 129 89 219 218 219 198 0 299 -230 162 -372 -41 -43 -78 -62 -136
-71 l-46 -6 -83 -265 c-106 -340 -150 -484 -236 -784 -25 -87 -47 -161 -50
-163 -2 -2 -32 3 -67 12 -116 30 -820 117 -1088 135 -290 19 -809 11 -1016
-15 -339 -43 -685 -102 -766 -130 -23 -9 -43 -14 -45 -12 -2 1 -16 50 -32 107
-60 211 -107 368 -247 825 -19 61 -47 148 -62 194 l-28 85 -50 11 c-68 15
-108 38 -143 81 -70 84 -67 205 6 286 91 101 229 105 323 9 76 -79 88 -175 33
-269 l-25 -43 25 -44 c48 -82 173 -240 239 -303 68 -65 152 -112 200 -112 73
0 180 89 230 190 25 52 77 233 77 269 0 11 -14 21 -44 29 -117 31 -188 177
-140 290 81 195 362 184 421 -17 31 -106 -12 -208 -113 -267 -17 -10 -16 -14
16 -69 47 -79 124 -154 193 -189 47 -23 69 -28 131 -28 63 0 82 4 127 28 117
64 212 248 260 503 25 135 25 136 -11 151 -48 20 -97 85 -111 146 -19 85 0
154 60 213 65 66 137 85 222 59z m-6066 -1218 c424 -210 887 -440 1030 -510
143 -70 715 -354 1270 -630 556 -276 1074 -533 1153 -571 l143 -70 -7 -227
c-15 -511 52 -1053 192 -1552 148 -527 390 -1057 687 -1505 83 -125 245 -341
308 -409 28 -31 50 -59 47 -61 -3 -3 -60 31 -127 75 -328 215 -459 345 -688
690 -224 336 -450 756 -542 1005 -124 338 -265 993 -338 1568 -14 110 -21 141
-35 148 -10 5 -98 38 -197 74 -683 244 -1999 751 -2446 942 -349 149 -563 291
-785 519 -174 179 -286 339 -391 559 -57 119 -129 317 -129 355 0 19 1 19 43
1 23 -11 389 -191 812 -401z m12855 405 c0 -9 -16 -64 -35 -123 -42 -131 -162
-374 -244 -497 -143 -214 -338 -411 -560 -565 -110 -77 -350 -204 -501 -265
-36 -14 -202 -81 -370 -149 -379 -152 -502 -201 -805 -316 -132 -50 -251 -95
-264 -101 -30 -13 -468 -176 -736 -274 -52 -19 -137 -50 -187 -69 -51 -19
-128 -46 -170 -61 -43 -15 -81 -33 -86 -39 -5 -6 -14 -58 -21 -116 -23 -201
-95 -625 -148 -880 -70 -337 -155 -636 -231 -810 -111 -256 -305 -604 -498
-895 -197 -296 -275 -387 -456 -532 -74 -59 -255 -183 -333 -228 l-49 -29 105
129 c489 600 863 1391 1028 2172 88 414 132 922 113 1301 -4 85 -5 158 -2 163
3 4 300 154 660 332 360 179 963 477 1340 664 377 186 917 454 1200 594 283
139 675 334 870 431 195 97 361 177 368 177 6 1 12 -6 12 -14z m-13455 -1248
c209 -79 484 -184 610 -232 359 -137 401 -153 550 -210 139 -52 895 -340 1365
-520 347 -132 916 -349 973 -370 32 -12 49 -25 52 -39 13 -60 46 -309 41 -313
-2 -3 -67 9 -143 26 -76 17 -329 73 -563 125 -1342 299 -2264 537 -2497 646
-344 160 -655 502 -869 956 -30 63 -54 119 -54 124 0 11 16 5 535 -193z
m13735 198 c0 -11 -85 -195 -122 -263 -231 -426 -552 -733 -901 -862 -136 -50
-598 -178 -1007 -278 -347 -85 -544 -133 -625 -151 -49 -11 -150 -34 -222 -50
-232 -54 -390 -89 -693 -156 -162 -36 -353 -79 -425 -95 -71 -16 -131 -27
-134 -24 -4 4 35 299 44 329 1 6 49 27 106 49 57 21 203 77 324 123 121 47
243 93 270 103 28 10 91 34 140 53 50 19 173 66 275 105 102 39 293 112 425
162 132 51 267 102 300 114 33 13 211 81 395 151 184 70 506 192 715 272 209
79 432 164 495 188 63 24 194 74 290 110 96 36 209 79 250 95 72 28 100 35
100 25z m-6625 -305 c201 -18 685 -70 770 -83 l80 -12 5 -122 c3 -67 7 -124
10 -126 3 -3 183 -50 400 -105 217 -56 413 -107 435 -115 l40 -14 -1 -389 c-3
-732 -45 -1156 -155 -1549 -190 -681 -425 -1181 -771 -1642 -326 -433 -974
-1034 -1287 -1193 l-44 -22 -41 23 c-268 148 -748 569 -1075 944 -455 521
-757 1111 -976 1907 -100 366 -139 752 -152 1509 l-6 397 22 11 c21 12 433
121 721 192 74 18 138 38 142 44 4 5 8 61 8 123 0 107 1 113 23 122 46 19 722
92 1007 109 186 11 678 6 845 -9z m5865 -979 c0 -23 -175 -246 -269 -344 -305
-316 -644 -490 -1056 -541 -394 -49 -752 -67 -1487 -73 -553 -5 -628 -4 -628
10 0 32 33 157 43 165 7 6 32 14 57 20 63 14 423 97 550 127 226 53 459 107
775 180 182 41 425 98 540 125 248 58 659 153 1020 236 61 13 182 42 270 63
178 43 185 45 185 32z m-12385 -85 c743 -172 1257 -290 1720 -397 286 -66 585
-135 665 -153 80 -19 258 -60 395 -92 138 -31 252 -58 254 -60 7 -6 41 -167
36 -172 -20 -20 -1037 -7 -1480 18 -554 32 -833 73 -1033 151 -251 99 -453
238 -663 457 -106 110 -248 292 -249 319 0 8 15 8 58 -2 31 -7 165 -38 297
-69z m11245 -991 c0 -38 -178 -225 -273 -288 -151 -101 -328 -162 -504 -177
-131 -11 -267 -1 -663 45 -446 53 -950 121 -958 130 -3 3 10 60 29 127 l35
123 59 6 c33 4 186 8 340 9 154 1 550 8 880 14 690 15 1055 18 1055 11z
m-9025 -26 c451 -6 836 -14 855 -18 l35 -7 32 -119 c18 -66 29 -123 25 -126
-8 -7 -56 -14 -447 -64 -682 -88 -885 -108 -1060 -108 -150 0 -181 3 -266 26
-129 34 -230 77 -325 139 -87 57 -212 176 -264 252 l-33 49 314 -6 c173 -4
683 -12 1134 -18z m6804 -469 c108 -17 268 -42 356 -55 88 -13 250 -37 360
-54 110 -17 265 -40 345 -52 80 -12 151 -25 159 -29 38 -20 -216 -171 -344
-205 -78 -20 -261 -21 -335 -1 -30 8 -134 37 -230 65 -96 27 -267 75 -380 107
-113 31 -209 61 -214 65 -13 11 56 189 73 189 7 0 102 -14 210 -30z m-5772
-67 c18 -48 29 -91 25 -95 -4 -4 -158 -50 -342 -102 -574 -162 -523 -150 -645
-150 -130 0 -204 18 -320 74 -78 39 -195 122 -195 139 0 4 24 11 53 14 28 3
171 24 317 47 146 22 416 63 600 91 184 28 355 55 380 59 96 17 92 19 127 -77z
m5808 -412 c432 -144 456 -153 453 -162 -4 -9 -60 -52 -408 -315 -574 -433
-708 -527 -900 -627 -258 -134 -403 -207 -407 -203 -2 2 16 28 40 57 155 192
413 561 542 774 81 135 216 407 246 495 29 86 38 110 41 110 2 0 179 -58 393
-129z m-5673 28 c97 -288 387 -761 760 -1241 37 -48 68 -90 68 -93 0 -7 -264
125 -435 218 -161 86 -289 175 -770 537 -456 343 -490 369 -490 384 0 11 812
288 829 283 5 -2 22 -41 38 -88z m5509 -3296 c5 -5 12 -54 16 -108 5 -83 4
-97 -8 -92 -148 64 -219 77 -312 57 -80 -16 -129 -55 -168 -135 -29 -59 -33
-78 -37 -172 -7 -159 18 -249 94 -333 104 -115 284 -129 497 -40 39 16 72 29
73 27 1 -1 -16 -47 -38 -103 l-39 -101 -52 -13 c-89 -22 -343 -25 -431 -6
-283 63 -466 316 -425 589 32 217 193 381 424 431 78 17 388 17 406 -1z
m-9431 3 c0 -6 -40 -176 -46 -198 -5 -16 -7 -15 -24 2 -24 24 -67 32 -150 28
l-65 -3 -5 -260 c-3 -143 -7 -255 -8 -250 -1 6 -6 4 -11 -4 -7 -11 -11 -5 -16
22 -4 20 -10 36 -14 35 -18 -2 -31 3 -31 13 0 13 -25 39 -39 39 -5 0 -21 15
-35 33 -14 17 -26 26 -26 20 0 -7 -4 -13 -10 -13 -5 0 -10 17 -10 38 0 25 -7
43 -20 55 -19 16 -20 16 -21 -6 -1 -17 -2 -18 -6 -4 -2 9 -11 17 -19 17 -8 0
-14 7 -14 15 0 8 7 15 15 15 8 0 15 7 15 15 0 9 -6 12 -15 9 -13 -5 -15 10
-15 106 l0 111 -85 -3 c-49 -2 -85 1 -85 6 0 6 -7 1 -15 -10 -13 -18 -14 -17
-9 11 2 17 1 25 -4 18 -6 -10 -12 -8 -23 5 -16 19 -14 46 2 36 5 -3 9 0 9 5 0
6 -4 11 -10 11 -5 0 -10 5 -10 11 0 5 5 7 12 3 7 -4 8 -3 4 5 -5 7 -5 23 -2
36 l6 25 383 3 c210 1 385 3 390 5 4 1 7 0 7 -2z m11310 -101 c0 -58 -2 -105
-5 -105 -3 0 -19 10 -36 23 -26 19 -46 23 -130 25 l-99 4 0 -127 0 -126 105 3
105 3 0 -98 0 -98 -26 20 c-22 17 -41 21 -105 21 l-79 0 0 -149 0 -149 33 -6
c138 -24 246 -13 320 34 l44 28 -27 -107 -26 -106 -349 -3 -349 -2 21 22 c11
13 25 38 32 57 14 42 15 776 1 835 -5 22 -18 52 -30 67 l-20 29 302 3 c167 1
306 3 311 5 4 1 7 -45 7 -103z m2619 20 c-10 -44 -21 -95 -25 -113 l-6 -33
-22 20 c-11 11 -34 24 -49 30 -31 12 -109 14 -145 5 l-23 -7 3 -377 3 -376 28
-42 27 -42 -206 0 c-194 0 -204 1 -188 17 42 42 44 66 44 452 l0 369 -31 7
c-47 11 -133 -4 -186 -30 -26 -14 -48 -23 -50 -21 -3 2 38 169 51 211 2 6 144
10 398 10 l395 0 -18 -80z m-13494 33 c-23 -41 -25 -52 -25 -200 l0 -158 141
0 140 0 -3 168 c-3 156 -5 169 -26 200 l-23 32 196 0 196 0 -21 -30 c-31 -43
-35 -94 -39 -445 -4 -370 2 -452 35 -500 l23 -35 -194 0 -194 0 23 35 c30 43
41 158 31 315 l-8 110 -138 0 -139 0 0 -194 c0 -189 1 -194 25 -230 l24 -36
-190 0 -191 0 24 38 c23 37 23 40 26 407 4 425 0 480 -33 530 l-24 35 194 0
194 0 -24 -42z m1474 -341 c185 -489 205 -536 247 -586 l36 -41 -218 0 -218 0
27 28 c36 37 35 73 -4 189 l-31 93 -163 0 -163 0 -36 -109 c-37 -112 -37 -125
-4 -173 l19 -28 -146 0 c-141 0 -145 1 -135 19 5 11 15 23 20 26 6 4 19 23 29
43 29 58 283 780 288 821 4 30 0 43 -22 69 l-27 32 179 0 178 0 144 -383z
m872 69 c134 -173 247 -315 252 -315 11 -1 8 467 -4 519 -5 25 -19 57 -29 72
-11 15 -20 30 -20 33 0 3 63 5 141 5 l140 0 -25 -33 c-14 -19 -30 -58 -36 -87
-6 -30 -10 -238 -10 -487 l0 -435 -32 7 c-18 4 -70 25 -116 46 -105 51 -190
129 -324 303 -56 72 -136 174 -177 226 l-76 95 -3 -240 c-3 -253 5 -326 39
-368 10 -14 19 -28 19 -31 0 -3 -61 -6 -136 -6 -75 0 -134 3 -132 8 2 4 15 30
29 57 l24 50 0 360 c0 198 -4 377 -8 397 -4 20 -23 60 -42 88 l-34 50 158 0
157 0 245 -314z m985 279 c-28 -41 -39 -129 -34 -270 l3 -90 140 0 140 0 3 90
c5 141 -6 229 -34 270 l-23 35 201 0 c198 0 201 0 184 -19 -42 -46 -45 -79
-45 -481 0 -212 3 -402 8 -423 5 -22 19 -50 32 -63 l22 -24 -203 0 -203 0 21
23 c32 34 41 97 42 275 l0 162 -145 0 -145 0 0 -157 c1 -179 8 -233 39 -274
l22 -29 -201 0 c-190 0 -200 1 -184 17 42 42 44 65 44 475 0 216 -4 410 -9
431 -5 22 -19 50 -32 63 l-22 24 201 0 201 0 -23 -35z m1004 8 c1 -36 222
-660 235 -663 16 -3 194 527 194 579 1 32 -6 53 -25 78 l-25 33 131 0 131 0
-7 -22 c-17 -59 -354 -1012 -359 -1016 -7 -7 -156 57 -199 86 -75 52 -91 83
-236 471 -77 206 -153 398 -170 427 l-30 54 180 0 180 0 0 -27z m1095 -9 l-25
-37 0 -432 0 -432 25 -37 24 -36 -201 0 -201 0 21 23 c13 13 27 39 32 58 12
41 13 776 1 837 -5 24 -19 54 -31 68 l-23 24 201 0 201 0 -24 -36z m705 -279
l245 -315 3 257 2 258 -28 58 -29 57 139 0 139 0 -28 -47 -28 -48 -3 -472 c-2
-374 -5 -473 -15 -473 -32 0 -142 45 -197 81 -97 63 -146 115 -336 359 l-179
229 -3 -247 c-3 -258 3 -313 39 -364 l20 -28 -140 0 -140 0 27 52 27 52 0 391
c0 428 1 419 -63 488 l-26 27 165 0 164 -1 245 -314z m985 280 c-28 -42 -38
-116 -33 -260 l3 -100 138 -3 138 -3 -3 168 c-3 157 -5 170 -26 201 l-23 32
202 0 202 0 -22 -24 c-13 -13 -27 -41 -32 -63 -5 -21 -9 -209 -9 -418 0 -209
4 -397 9 -418 5 -22 19 -50 32 -63 l22 -24 -201 0 -201 0 24 36 c24 36 25 41
25 230 l0 194 -140 0 -140 0 0 -157 c1 -179 8 -233 39 -274 l22 -29 -202 0
-202 0 21 23 c11 12 25 42 31 67 12 53 14 741 2 813 -4 26 -18 61 -30 78 l-22
29 200 0 200 0 -24 -35z m2773 6 c69 -31 128 -98 148 -169 32 -110 -16 -212
-133 -282 l-62 -37 63 -99 c101 -163 167 -255 234 -325 l63 -67 -118 -7 c-159
-10 -224 2 -275 52 -48 47 -110 144 -179 286 -30 59 -57 107 -61 107 -5 0 -8
-73 -8 -162 1 -168 10 -219 46 -259 17 -19 14 -19 -179 -19 l-196 0 24 43 25
42 0 405 c0 236 -4 420 -10 441 -5 19 -19 45 -31 58 l-21 22 308 -3 c301 -3
310 -4 362 -27z m1854 1 c252 -92 378 -345 308 -617 -24 -95 -56 -152 -127
-226 -113 -119 -195 -139 -570 -139 l-272 0 24 43 25 42 0 405 c0 234 -4 420
-10 439 -5 19 -20 45 -32 59 l-23 24 310 -4 c284 -4 315 -6 367 -26z m840 6
c-40 -44 -42 -65 -42 -484 0 -423 2 -445 44 -487 16 -16 6 -17 -183 -17 l-200
0 24 43 25 42 0 405 c0 236 -4 420 -10 441 -5 19 -19 45 -30 57 l-21 22 207 0
207 0 -21 -22z m-13822 -126 c0 -5 -6 -17 -14 -27 -13 -18 -14 -18 -9 8 5 24
23 39 23 19z"/>
<path d="M12395 13419 l-98 -142 18 -30 c23 -39 176 -257 180 -257 4 0 157
218 180 257 l18 30 -68 99 c-67 96 -112 161 -125 177 -4 4 -51 -56 -105 -134z"/>
<path d="M11841 13344 l-73 -106 19 -27 c11 -14 43 -61 72 -103 29 -43 56 -80
61 -83 4 -3 32 30 61 72 29 43 60 89 71 102 10 13 18 31 17 40 0 18 -129 203
-144 208 -6 2 -44 -45 -84 -103z"/>
<path d="M13014 13383 c-26 -38 -58 -82 -71 -100 -13 -17 -23 -37 -23 -43 0
-17 142 -220 151 -215 4 3 31 40 60 83 29 42 61 89 72 103 l19 26 -74 107
c-40 58 -76 106 -80 106 -4 0 -28 -30 -54 -67z"/>
<path d="M11406 13226 c-25 -36 -46 -70 -46 -76 0 -7 22 -43 49 -81 l48 -69
52 75 52 74 -48 71 c-26 38 -51 70 -55 70 -3 0 -27 -29 -52 -64z"/>
<path d="M13477 13220 l-47 -70 47 -70 c27 -38 51 -70 55 -70 3 0 27 30 53 66
41 57 46 69 37 89 -14 31 -82 125 -90 125 -4 0 -28 -32 -55 -70z"/>
<path d="M12135 12530 c-297 -24 -653 -62 -857 -91 l-78 -11 0 -97 c0 -53 -3
-105 -6 -117 -5 -18 -32 -28 -197 -69 -256 -63 -564 -143 -604 -156 l-33 -11
0 -271 c0 -408 31 -948 71 -1222 41 -285 174 -741 316 -1080 254 -607 574
-1049 1140 -1577 219 -205 547 -448 603 -448 58 0 378 238 615 457 673 622
1041 1196 1300 2029 180 577 218 930 215 1970 l0 152 -82 22 c-46 13 -229 60
-406 105 -192 48 -327 87 -333 96 -5 8 -9 60 -9 116 0 88 -2 102 -17 107 -20
6 -463 57 -708 81 -187 19 -765 28 -930 15z m925 -34 c96 -9 230 -23 298 -31
68 -9 184 -22 258 -30 73 -7 138 -16 144 -20 6 -3 10 -49 10 -104 0 -64 4
-103 13 -115 9 -13 113 -43 362 -107 193 -48 373 -94 400 -102 l50 -13 7 -110
c13 -216 -8 -851 -38 -1144 -22 -221 -42 -340 -84 -510 -155 -624 -417 -1211
-725 -1628 -183 -248 -519 -606 -775 -827 -202 -174 -446 -345 -492 -345 -26
0 -217 127 -347 231 -267 213 -612 561 -831 839 -364 462 -648 1087 -818 1800
-72 300 -107 828 -103 1556 1 128 2 132 24 137 12 3 193 48 402 102 248 63
384 102 393 113 8 10 12 52 12 118 0 116 -6 108 95 119 33 4 150 17 260 30
110 13 290 31 400 40 110 8 218 17 240 19 96 9 682 -3 845 -18z"/>
<path d="M13040 11168 c-135 -5 -476 -6 -758 -3 -413 5 -513 3 -516 -7 -3 -7
-21 -78 -41 -158 -20 -80 -46 -176 -57 -213 -11 -38 -18 -71 -15 -73 2 -2 40
16 84 41 104 59 192 78 333 73 59 -2 111 -8 118 -12 15 -9 17 -1290 2 -1428
-10 -98 -32 -157 -78 -210 -17 -19 -29 -38 -25 -42 11 -11 801 -7 808 4 4 6
-5 24 -20 42 -36 43 -61 94 -79 165 -14 53 -16 156 -16 766 l0 705 33 6 c77
16 178 18 243 6 85 -16 117 -32 160 -78 37 -41 34 -44 59 68 9 41 30 133 46
203 16 71 29 135 29 143 0 9 -10 14 -32 12 -18 0 -143 -5 -278 -10z"/>
<path d="M5187 6239 c7 -7 15 -10 18 -7 3 3 -2 9 -12 12 -14 6 -15 5 -6 -5z"/>
<path d="M7477 5938 c-25 -73 -49 -141 -52 -150 -7 -17 2 -18 104 -18 61 0
111 3 111 8 0 15 -104 292 -110 292 -4 0 -27 -60 -53 -132z"/>
<path d="M15950 6005 l0 -175 28 6 c42 10 74 29 103 61 39 42 49 66 49 123 0
99 -53 160 -137 160 l-43 0 0 -175z"/>
<path d="M17828 6173 c-17 -4 -18 -29 -18 -348 l0 -344 45 -7 c112 -16 209 31
257 127 39 79 55 187 41 292 -25 186 -115 288 -253 286 -30 -1 -63 -3 -72 -6z"/>
</g>
</svg>
