<svg xmlns="http://www.w3.org/2000/svg" xml:space="preserve" width="2048" height="2048" style="shape-rendering:geometricPrecision;text-rendering:geometricPrecision;image-rendering:optimizeQuality;fill-rule:evenodd;clip-rule:evenodd"><defs><clipPath id="id0"><path d="M1024 0c565.539 0 1024 458.461 1024 1024s-458.461 1024-1024 1024S0 1589.539 0 1024 458.461 0 1024 0z"/></clipPath><style>.fil1{fill:#45bbcb}.fil7{fill:#558b2f}.fil4{fill:#7cb342}.fil5{fill:#33691e;fill-rule:nonzero}</style></defs><g id="Layer_x0020_1"><path d="M1024 0c565.539 0 1024 458.461 1024 1024s-458.461 1024-1024 1024S0 1589.539 0 1024 458.461 0 1024 0z" style="fill:#4dd0e1"/><g style="clip-path:url(#id0)"><g id="_341215480"><path id="_3384471121" class="fil1" d="M1434.81 493.959 2570.69 1629.84l125.66 396.72L1560.47 890.677z"/><path id="_338447304" class="fil1" d="M1560.47 890.677 2696.35 2026.56l.62 2.12.49 2.12.39 2.13.28 2.12.16 2.13.07 2.11-.05 2.11-.14 2.09-.25 2.07-.35 2.05-.44 2.02-.54 2-.64 1.97-.72 1.93-.82 1.89-.9 1.85L1557.62 923.392l.91-1.85.82-1.894.72-1.931.64-1.966.54-1.999.44-2.025.35-2.052.25-2.072.14-2.089.04-2.105-.06-2.115-.16-2.122-.28-2.126-.39-2.128-.5-2.123z"/><path id="_338448120" class="fil1" d="M1557.62 923.392 2693.51 2059.27l-1 1.81-1.07 1.76-1.16 1.7-1.25 1.65-1.32 1.6-1.4 1.53-1.48 1.46-1.55 1.4-1.63 1.32-1.69 1.24-1.77 1.17-1.83 1.09-1.9 1-1.96.9-2.02.82-2.08.72L1532.51 944.557l2.09-.72 2.02-.815 1.96-.909 1.9-.998 1.83-1.084 1.77-1.168 1.69-1.247 1.63-1.322 1.55-1.396 1.48-1.464 1.4-1.531 1.32-1.59 1.24-1.652 1.17-1.705 1.07-1.758z"/><path id="_338447976" class="fil1" d="M1532.51 944.557 2668.4 2080.44l-158.13 50.09L1374.39 994.644z"/><path id="_338447952" class="fil1" d="M1556.42 1011.18 2692.3 2147.06l1.58 1.83 1.5 1.9 1.41 1.98 1.31 2.05 1.22 2.11 1.11 2.17 1.01 2.23.91 2.29.79 2.34.68 2.39.57 2.43.44 2.48.32 2.52.2 2.55.07 2.59-1135.89-1135.88-.06-2.59-.2-2.55-.32-2.52-.44-2.48-.57-2.44-.68-2.39-.79-2.34-.91-2.28-1.01-2.23-1.11-2.18-1.22-2.11-1.31-2.04-1.41-1.98-1.5-1.9z"/><path id="_338448216" class="fil1" d="m1569.53 1045.04 1135.89 1135.88v488.57L1569.53 1533.61z"/><path id="_338447904" class="fil1" d="m1569.53 1533.61 1135.89 1135.88-.07 2.59-.2 2.55-.32 2.52-.44 2.48-.57 2.43-.68 2.39-.79 2.34-.91 2.29-1.01 2.23-1.11 2.17-1.22 2.11-1.31 2.05-1.41 1.97-1.5 1.91-1.58 1.83-1.67 1.75-1135.88-1135.89 1.67-1.75 1.58-1.82 1.5-1.91 1.41-1.97 1.31-2.05 1.22-2.11 1.11-2.17 1.01-2.23.91-2.29.79-2.34.68-2.39.57-2.44.44-2.47.32-2.52.2-2.56z"/><path id="_338448480" class="fil1" d="M1554.75 1569.21 2690.63 2705.1l-1.75 1.67-1.83 1.58-1.9 1.5-1.98 1.41-2.04 1.31-2.11 1.21-2.18 1.12-2.23 1.01-2.29.91-2.34.79-2.39.68-2.43.57-2.48.44-2.52.32-2.55.2-2.59.06L1519.14 1584l2.59-.06 2.55-.2 2.52-.32 2.48-.45 2.43-.56 2.39-.68 2.34-.8 2.29-.9 2.23-1.01 2.17-1.12 2.11-1.21 2.05-1.32 1.97-1.4 1.91-1.5 1.83-1.59z"/><path id="_338448096" class="fil1" d="m1519.14 1584 1135.88 1135.88h-990.28L528.859 1584z"/><path id="_338448528" class="fil1" d="M528.859 1584 1664.74 2719.88l-2.59-.06-2.55-.2-2.52-.32-2.48-.44-2.43-.57-2.39-.68-2.34-.79-2.29-.91-2.23-1.01-2.17-1.12-2.11-1.21-2.05-1.31-1.97-1.41-1.91-1.5L496.832 1572.47l1.904 1.5 1.976 1.4 2.045 1.32 2.11 1.21 2.172 1.12 2.233 1.01 2.286.9 2.34.8 2.389.68 2.436.56 2.478.45 2.517.32 2.554.2z"/><path id="_338448552" class="fil1" d="M1426.54 479.074 2562.42 1614.96l1.33 1.62 1.24 1.7 1.17 1.76 1.09 1.83 1 1.9.9 1.96.82 2.03.72 2.08L1434.81 493.959l-.72-2.084-.82-2.024-.91-1.961-.99-1.898-1.09-1.832-1.17-1.766-1.24-1.694z"/><path id="_341214784" class="fil1" d="m1434.81 493.959 125.665 396.718c3.57 11.27 2.213 22.962-2.848 32.715-5.06 9.754-13.839 17.594-25.11 21.165l-158.12 50.087h144.747c13.882 0 26.486 5.663 35.608 14.786 9.122 9.12 14.785 21.725 14.785 35.607v488.57c0 13.881-5.663 26.486-14.785 35.607-9.122 9.123-21.726 14.787-35.608 14.787H528.862c-13.88 0-26.485-5.664-35.607-14.787-9.122-9.121-14.786-21.726-14.786-35.607v-488.57c0-13.882 5.664-26.488 14.786-35.607 9.122-9.123 21.724-14.786 35.607-14.786h89.71L548.87 774.593c-3.57-11.273-2.214-22.963 2.847-32.716s13.838-17.593 25.11-21.164l804.104-254.71c11.271-3.57 22.963-2.215 32.715 2.846 9.754 5.06 17.595 13.838 21.165 25.11z"/></g></g><path d="M1024 0c565.539 0 1024 458.461 1024 1024s-458.461 1024-1024 1024S0 1589.539 0 1024 458.461 0 1024 0z" style="fill:none"/><path d="m576.824 720.713 804.103-254.71c11.271-3.57 22.963-2.215 32.717 2.846 9.752 5.06 17.592 13.838 21.163 25.11l125.666 396.717c3.569 11.27 2.213 22.963-2.848 32.716-5.061 9.754-13.839 17.594-25.11 21.164l-804.103 254.71c-11.272 3.57-22.962 2.215-32.716-2.846-9.753-5.061-17.593-13.84-21.164-25.11L548.866 774.593c-3.57-11.273-2.213-22.963 2.848-32.716 5.06-9.753 13.837-17.594 25.11-21.164z" style="fill:#33691e"/><path class="fil4" d="m575.66 747.135 90.875-28.786a86.684 86.684 0 0 1 3.133 4.788c3.439 5.656 6.331 12.022 8.56 19.054 7.236 22.846 4.529 46.462-5.7 66.174-10.226 19.708-27.977 35.519-50.824 42.757-5.992 1.898-11.68 3.114-17.02 3.692l-.732.076-31.92-100.767c-.453-1.433-.266-2.949.398-4.229.665-1.281 1.796-2.305 3.23-2.759zM713.639 1182.73l90.875-28.786a87.647 87.647 0 0 0-.195-5.719c-.445-6.604-1.745-13.475-3.973-20.506-7.236-22.847-23.047-40.597-42.758-50.824-19.708-10.226-43.325-12.934-66.173-5.698-5.991 1.898-11.343 4.179-16.041 6.781l-.643.359 31.92 100.767c.453 1.434 1.478 2.564 2.759 3.23 1.281.664 2.795.85 4.23.396zM1535.07 922.528l-90.876 28.786a87.368 87.368 0 0 1-3.133-4.788c-3.44-5.656-6.33-12.022-8.558-19.054-7.238-22.847-4.53-46.462 5.698-66.174 10.226-19.708 27.976-35.519 50.824-42.757 5.992-1.898 11.68-3.114 17.02-3.692l.732-.077 31.92 100.768c.453 1.433.266 2.948-.398 4.229-.664 1.281-1.795 2.305-3.229 2.759zM1397.09 486.936l-90.875 28.786c.002 1.897.067 3.804.196 5.718.444 6.605 1.744 13.476 3.972 20.507 7.236 22.847 23.047 40.597 42.758 50.824 19.708 10.226 43.325 12.934 66.173 5.698 5.991-1.898 11.343-4.18 16.041-6.78l.643-.36-31.92-100.767c-.453-1.434-1.477-2.565-2.759-3.23-1.28-.664-2.795-.85-4.23-.396zM991.905 634.49c54.713-17.331 111.275-10.844 158.491 13.656 47.217 24.5 85.087 67.01 102.418 121.723 17.331 54.714 10.844 111.276-13.656 158.492-24.5 47.217-67.01 85.087-121.723 102.418-54.715 17.331-111.276 10.844-158.492-13.656-47.216-24.5-85.087-67.01-102.418-121.725-17.331-54.713-10.844-111.275 13.656-158.491 24.5-47.217 67.01-85.087 121.725-102.418z"/><path class="fil5" d="m1091.32 953.711-7.585-23.946c-12.47 2.301-23.042 2.7-31.762 1.213-8.72-1.488-17.204-5.7-25.376-12.56-8.188-6.906-14.693-16.393-19.485-28.524l22.642-12.172c5.935 12.268 12.2 20.683 18.84 25.229 9.43 6.412 19.014 8.576 28.723 6.55l-24.151-76.241c-10.45 1.26-21.7.624-33.841-1.88-8.987-1.853-16.719-5.903-23.243-12.135-6.525-6.233-11.275-14.127-14.312-23.714-5.396-17.038-3.728-32.765 4.973-47.12 5.827-9.696 16.455-17.812 31.81-24.426l-3.628-11.45 14.13-4.475 3.628 11.45c14.32-3.086 26.702-2.509 36.994 1.73 13.244 5.353 23.3 15.317 30.243 29.816l-23.582 11.57c-4.388-8.96-9.63-15.248-15.711-18.822-6.037-3.587-13.222-4.96-21.54-4.075l21.876 69.062c13.005-.769 21.75-.94 26.191-.496 8.488.91 15.842 2.98 22.005 6.178 6.222 3.228 11.627 7.667 16.17 13.327 4.602 5.691 8.091 12.285 10.48 19.828 5.267 16.629 4.327 32.126-2.702 46.55-7.015 14.472-18.82 24.71-35.328 30.84l7.672 24.217-14.131 4.476zm-66.449-209.778c-8.869 4.358-15.05 10.416-18.497 18.157-3.447 7.741-3.868 15.724-1.249 23.994 2.576 8.132 7.02 14.274 13.353 18.318 6.33 4.044 15.45 6.005 27.39 5.822l-20.997-66.291zm66.575 161.092c8.955-4.085 15.353-10.561 19.253-19.397 3.902-8.835 4.225-18.387.987-28.61-2.749-8.678-7.146-14.984-13.087-18.901-5.985-3.904-16.069-5.91-30.251-6.017l23.098 72.925z"/><path d="M528.859 994.644h990.282c13.882 0 26.486 5.663 35.608 14.785 9.122 9.12 14.785 21.725 14.785 35.608v488.57c0 13.882-5.663 26.486-14.785 35.608-9.122 9.122-21.726 14.785-35.608 14.785H528.859c-13.88 0-26.485-5.663-35.607-14.785-9.123-9.122-14.786-21.726-14.786-35.608v-488.57c0-13.883 5.663-26.487 14.786-35.608 9.122-9.122 21.724-14.785 35.607-14.785z" style="fill:#689f38"/><path class="fil7" d="M518.189 1023.8h111.917c.67 2.125 1.273 4.283 1.808 6.47 1.845 7.55 2.824 15.7 2.824 24.36 0 28.137-11.402 53.608-29.837 72.043-18.432 18.432-43.906 29.837-72.042 29.837-7.38 0-14.178-.656-20.359-1.902l-.847-.173v-124.1c0-1.765.747-3.394 1.943-4.593 1.199-1.197 2.828-1.942 4.593-1.942zM518.189 1560.25h111.917c.67-2.125 1.273-4.283 1.808-6.47 1.845-7.55 2.824-15.7 2.824-24.36 0-28.137-11.402-53.607-29.837-72.043-18.432-18.432-43.906-29.837-72.042-29.837-7.38 0-14.178.656-20.359 1.902l-.847.174v124.097c0 1.766.747 3.395 1.943 4.594 1.199 1.197 2.828 1.943 4.593 1.943zM1529.81 1560.25h-111.917a102.697 102.697 0 0 1-1.808-6.47c-1.845-7.55-2.824-15.7-2.824-24.36 0-28.137 11.402-53.607 29.838-72.043 18.431-18.432 43.905-29.837 72.041-29.837 7.381 0 14.178.656 20.359 1.902l.847.174v124.097c0 1.766-.745 3.395-1.943 4.594-1.198 1.197-2.828 1.943-4.593 1.943zM1529.81 1023.8h-111.917a102.697 102.697 0 0 0-1.808 6.47c-1.844 7.55-2.824 15.7-2.824 24.36 0 28.137 11.402 53.608 29.838 72.043 18.431 18.432 43.905 29.837 72.041 29.837 7.381 0 14.178-.657 20.359-1.902l.847-.173v-124.1c0-1.765-.745-3.394-1.943-4.593-1.198-1.197-2.828-1.942-4.593-1.942z"/><path class="fil4" d="M1024 1045.3c67.382 0 128.388 27.314 172.549 71.475 44.16 44.16 71.475 105.164 71.475 172.546 0 67.382-27.315 128.389-71.475 172.55-44.16 44.16-105.167 71.474-172.549 71.474s-128.387-27.314-172.547-71.475c-44.16-44.16-71.475-105.166-71.475-172.548s27.315-128.387 71.475-172.547S956.618 1045.3 1024 1045.3z"/><path class="fil5" d="M1022.1 1437.83v-29.489c-14.773-1.847-26.747-5.148-35.98-9.904-9.233-4.755-17.235-12.478-23.95-23.053-6.715-10.632-10.631-23.558-11.694-38.834l29.656-5.596c2.295 15.835 6.324 27.475 12.143 34.916 8.282 10.52 18.24 16.34 29.825 17.515v-93.894c-12.143-2.294-24.51-6.995-37.21-14.102-9.402-5.26-16.62-12.534-21.713-21.822-5.092-9.29-7.61-19.808-7.61-31.616 0-20.983 7.442-37.993 22.271-50.976 9.96-8.785 24.732-14.1 44.262-16.06v-14.1h17.402v14.1c17.122 1.623 30.776 6.66 40.792 15.054 12.926 10.686 20.647 25.404 23.277 44.093l-30.496 4.588c-1.735-11.583-5.371-20.48-10.91-26.635-5.485-6.156-13.039-10.24-22.663-12.198v85.052c14.828 3.75 24.676 6.66 29.489 8.73 9.176 4.028 16.674 8.952 22.439 14.717 5.819 5.818 10.294 12.702 13.372 20.647 3.135 8.002 4.7 16.62 4.7 25.909 0 20.479-6.546 37.49-19.527 51.143-12.982 13.709-29.826 20.983-50.473 21.99v29.825H1022.1zm0-258.349c-11.472 1.734-20.537 6.322-27.14 13.765-6.602 7.442-9.904 16.227-9.904 26.411 0 10.016 2.798 18.466 8.45 25.236 5.651 6.771 15.164 12.2 28.594 16.227v-81.639zm17.402 203.903c11.47-1.398 20.927-6.378 28.425-14.884 7.499-8.505 11.247-19.081 11.247-31.672 0-10.687-2.685-19.304-7.945-25.795-5.316-6.491-15.892-12.31-31.727-17.459v89.81z"/></g></svg>