<svg xmlns="http://www.w3.org/2000/svg" width="64" height="64" xml:space="preserve"><circle fill="#48CFAD" cx="32.059" cy="32" r="26.5"/><path fill="#5D9CEC" d="m39.039 42.017-2.563 5.455-4-2h-.954l-4 2-2.563-5.455c-6.185 4.009-11.576 3.279-12.731 7.555 4.854 5.475 11.937 8.929 19.829 8.929 7.841 0 14.883-3.408 19.735-8.82-1.095-4.392-6.519-3.623-12.753-7.664z"/><path fill="#656D78" d="M61.399 30a.499.499 0 0 1-.497-.458A28.887 28.887 0 0 0 34.458 3.098a.498.498 0 0 1-.456-.539.506.506 0 0 1 .54-.457 29.885 29.885 0 0 1 27.356 27.356.5.5 0 0 1-.456.54c-.014.002-.028.002-.043.002zM29.501 61.891l-.042-.002A29.865 29.865 0 0 1 2.102 34.542a.5.5 0 1 1 .996-.084 28.87 28.87 0 0 0 26.443 26.435.5.5 0 0 1-.04.998z"/><path fill="#3A3847" d="M32 11a.5.5 0 0 1-.5-.5V.5a.5.5 0 0 1 1 0v10a.5.5 0 0 1-.5.5z"/><path fill="#E6E9ED" d="m27.52 47.472-2.559-5.455v-1.955l.906 1.41 2.688 1.945 3.465 1.055.003 1z"/><path fill="#E6E9ED" d="m36.48 47.472 2.559-5.455v-1.955l-.906 1.41-2.688 1.945-3.465 1.055-.003 1z"/><path fill="#4A89DC" d="M32.012 48.976a.504.504 0 0 1-.506-.5c0-.275.219-.5.494-.5h.012a.5.5 0 0 1 0 1z"/><path fill="#F0C7B7" d="M43.977 28.471v.98c0 7.819-7.43 15.021-12 15.021-2.99 0-7.23-3.1-9.779-7.439-1.34-2.271-2.221-4.891-2.221-7.581v-.98l3.5-5s4.1 2 8.48 2c4.379 0 8.52-2 8.52-2l3.5 4.999z"/><path fill="#656D78" d="M38.477 18.471s7.23-1.029 5.5 10l-3.5-3.998s-4.141 2-8.52 2c-4.381 0-8.48-2-8.48-2l-3.5 3.998c-.359-3.869.32-6.789 1.631-8.959 4.949-8.271 18.869-6.041 18.869-6.041-3.27 1.349-2 5-2 5zM63.5 32.5h-10a.5.5 0 0 1 0-1h10a.5.5 0 0 1 0 1zM10.5 32.5H.5a.5.5 0 0 1 0-1h10a.5.5 0 0 1 0 1zM32 64a.5.5 0 0 1-.5-.5v-10a.5.5 0 0 1 1 0v10a.5.5 0 0 1-.5.5z"/><path fill="#434A54" d="M32 59C17.112 59 5 46.888 5 32S17.112 5 32 5s27 12.112 27 27-12.112 27-27 27zm0-53C17.663 6 6 17.664 6 32c0 14.337 11.663 26 26 26s26-11.663 26-26C58 17.664 46.337 6 32 6z"/></svg>