<svg version="1.1" id="icons" xmlns="http://www.w3.org/2000/svg" x="0" y="0" viewBox="0 0 64 64" style="enable-background:new 0 0 64 64" xml:space="preserve"><style>.st0{display:none}.st1,.st2{display:inline}.st1{fill:none;stroke:#414042;stroke-miterlimit:10}.st2{fill:#a7a9ac}.st3,.st4,.st5{display:inline;fill:#bcbec0}.st4,.st5{fill:#d1d3d4}.st5{fill:none;stroke:#414042;stroke-miterlimit:10;stroke-dasharray:1}.st6,.st7{display:inline;fill:#f5ab35}.st7{fill:#36d7b7}.st10,.st8,.st9{display:inline;fill:#414042}.st10,.st9{fill:#f1f2f2}.st10{fill:#86e7d4}.st11{fill:#fff}.st11,.st12{display:inline}.st13{fill:#a7a9ac}.st14{fill:#414042}.st15{display:inline;fill:#f7bc5d}.st16,.st17{fill:none;stroke:#414042;stroke-miterlimit:10}.st17{display:inline;stroke:#36d7b7}.st18{fill:#e6e7e8}.st19,.st20,.st21{display:inline;fill:#e6e7e8}.st20,.st21{fill:#5edfc5}.st21{fill:#29a189}.st23{fill:#f5ab35}.st25{fill:#fff}.st26{fill:#36d7b7}.st27{fill:#86e7d4}.st28{fill:#f9cd86}.st30{fill:#29a189}.st33{fill:none;stroke:#414042;stroke-linecap:round;stroke-miterlimit:10}.st34{display:inline;fill:none}</style><g id="XMLID_262_"><path id="XMLID_263_" class="st26" d="M18.2 15.4h27.5v12.4H18.2z"/><circle id="XMLID_261_" class="st27" cx="31.9" cy="21.5" r="4.3"/><path id="XMLID_260_" class="st16" d="M21.1 21.5h4.7"/><path id="XMLID_259_" class="st16" d="M37.9 21.5h4.7"/><g id="XMLID_254_"><path id="XMLID_255_" class="st14" d="M31.7 24v-.4c-.5-.1-1-.3-1.5-.7l.4-.5c.3.3.7.5 1 .5v-1.2c-.5-.1-.8-.3-1-.4-.2-.2-.3-.4-.3-.8 0-.3.1-.6.4-.9.2-.2.6-.3.9-.4V19h.4v.3c.4 0 .9.2 1.3.5l-.3.6c-.3-.2-.6-.3-.9-.3v1.1c.5.1.8.3 1 .4.2.2.3.5.3.8 0 .4-.1.6-.4.9-.2.2-.6.3-1 .4v.3h-.3zm-.4-3.9c-.1.1-.2.2-.2.3 0 .1 0 .2.1.3.1.1.2.2.5.2v-1c-.2.1-.3.2-.4.2zm1.3 2.7c.1-.1.2-.2.2-.3 0-.1 0-.3-.1-.3-.1-.1-.3-.2-.5-.2v1c.1-.1.3-.1.4-.2z"/></g><g id="XMLID_975_"><path id="XMLID_979_" class="st25" d="m36.8 33.2 4.4-4.7c1.1-1.4 3.3 0 2.1 1.4l-3.5 4.9h1.7l4.1-4.4s.4-2.7.5-3.1l.1-3.5c-.3-.6 0-1.3.6-1.6.6-.3 1.3 0 1.6.6v3.9c.1.3.1 5 .1 5l-4.9 10.2h-7.5v-7.3c.1-.4.3-1 .7-1.4z"/><path id="XMLID_978_" class="st33" d="m36.8 33.2 4.4-4.7c1.1-1.4 3.3 0 2.1 1.4l-3.5 4.9h1.7l4.3-4.6s.3-2.8.4-3.1l-.1-3.5c.1-.7 0-1.3.6-1.6.6-.3 1.3 0 1.6.6l.2 4.1c.1.3.1 5 .1 5l-4.9 10.2h-7.5v-7.3c0-.4.2-1 .6-1.4z"/><path id="XMLID_977_" class="st23" d="M33.5 42.4h11.7v10.2H33.5z"/><path id="XMLID_976_" class="st28" d="M33.5 42.4h3.2v10.2h-3.2z"/></g><g id="XMLID_714_"><path id="XMLID_718_" class="st25" d="m27.2 33.2-4.4-4.7c-1.1-1.4-3.3 0-2.1 1.4l3.5 4.9h-1.7l-4.1-4.4s-.4-2.7-.5-3.1l-.1-3.5c.3-.6 0-1.3-.6-1.6-.6-.3-1.3 0-1.6.6v3.9c-.1.3-.1 5-.1 5l4.9 10.2h7.5v-7.3c-.1-.4-.3-1-.7-1.4z"/><path id="XMLID_717_" class="st33" d="m27.2 33.2-4.4-4.7c-1.1-1.4-3.3 0-2.1 1.4l3.5 4.9h-1.7l-4.3-4.6s-.3-2.8-.4-3.1l.1-3.5c-.1-.7 0-1.3-.6-1.6-.6-.3-1.3 0-1.6.6l-.2 4.1c-.1.3-.1 5-.1 5l4.9 10.2h7.5v-7.3c0-.4-.2-1-.6-1.4z"/><path id="XMLID_716_" class="st23" d="M18.7 42.4h11.7v10.2H18.7z"/><path id="XMLID_715_" class="st28" d="M27.3 42.4h3.2v10.2h-3.2z"/></g><path id="XMLID_719_" class="st16" d="M31.7 11.4v2.2"/><path id="XMLID_713_" class="st16" d="m34.4 11.7-.6 2.2"/><path id="XMLID_720_" class="st16" d="m36.8 12.8-1.1 1.9"/><path id="XMLID_729_" class="st16" d="m36.8 30.3-1.1-1.9"/><path id="XMLID_730_" class="st16" d="m34.3 31.4-.6-2.2"/><path id="XMLID_731_" class="st16" d="M31.7 31.7v-2.3"/><path id="XMLID_732_" class="st16" d="m29.1 31.3.5-2.1"/><path id="XMLID_733_" class="st16" d="m26.6 30.3 1.1-1.9"/><path id="XMLID_741_" class="st16" d="m26.7 12.7 1.1 2"/><path id="XMLID_742_" class="st16" d="m29.2 11.7.6 2.2"/></g></svg>